<svg xmlns="http://www.w3.org/2000/svg" width="143" height="172">
    <path fill="#3D6D4F" fill-rule="evenodd" stroke="#0B0C11" stroke-linecap="round" stroke-linejoin="round" stroke-width="6" d="M129.725 109.488c-.782 5.945-2.448 11.779-4.938 17.237-2.478 5.433-5.77 10.564-9.806 14.98-4.356 4.765-9.559 8.826-15.351 11.711-2.884 1.437-5.859 2.692-8.952 3.615-3.08.917-6.247 1.588-9.438 1.975-7.051.858-14.237.341-21.064-1.501-.005-.022-.016-.044-.029-.062-.01-.012-.024-.012-.034-.02-.585-.13-1.166-.276-1.736-.466-.066-.023-.13-.052-.197-.074-.321-.098-.642-.198-.962-.304-.704-.238-1.4-.506-2.088-.792-1.392-.582-2.741-1.265-4.053-2.006-1.847-1.05-3.613-2.224-5.33-3.466-.289-.251-.574-.506-.862-.759l-.005.001c-1.349-1.188-2.69-2.391-4.055-3.563-.025-.019-.052-.03-.082-.035-.631-.639-1.243-1.299-1.825-1.987-.732-.865-1.442-1.751-2.143-2.638-.691-.868-1.382-1.737-1.991-2.665-.821-1.25-1.582-2.536-2.332-3.829-.664-1.145-1.341-2.282-1.967-3.447-1.192-2.225-2.359-4.493-3.348-6.816-1.135-2.677-2.002-5.467-2.703-8.286-.607-2.441-1.111-4.906-1.688-7.355-.582-2.487-1.1-4.976-1.533-7.492-.39-2.263-.688-4.541-1.057-6.808-.368-2.279-.709-4.565-1.089-6.844-.197-1.191-.466-2.365-.671-3.552-.212-1.215-.418-2.433-.661-3.646-.504-2.489-1.022-4.967-1.639-7.432-1.184-4.725-2.376-9.45-3.53-14.182-1.189-4.889-2.335-9.815-2.836-14.828-.255-2.552-.206-5.12.081-7.667.13-1.155.317-2.296.58-3.428.303-1.318.729-2.579 1.184-3.848.43-1.199.821-2.419 1.324-3.59.539-1.25 1.173-2.455 1.932-3.586.666-.993 1.335-1.986 2.069-2.928.519-.664 1.097-1.269 1.69-1.859.108-.146.229-.284.366-.41.222-.205.444-.408.667-.611.157-.196.342-.358.544-.498.558-.51 1.114-1.022 1.661-1.543.82-.783 1.679-1.437 2.681-1.979.68-.368 1.382-.692 2.083-1.011 1.057-.48 2.208-.791 3.33-1.064 1.189-.289 2.405-.387 3.627-.387 1.1 0 2.199.079 3.288.163 2.254.175 4.456.6 6.664 1.079 2.763.598 5.374 1.751 7.78 3.228 1.083.663 2.053 1.443 3.031 2.249.88.725 1.758 1.45 2.625 2.192 1.685 1.439 3.394 2.865 4.973 4.427.685.678 1.333 1.393 2.015 2.075.743.739 1.496 1.463 2.224 2.216 3.126 3.228 6.334 6.378 9.619 9.443 1.604 1.468 3.237 2.887 4.949 4.224.943.739 1.891 1.472 2.875 2.155.972.673 1.974 1.269 3.02 1.826l-.201-.106c1.615.864 3.205 1.754 4.768 2.706 1.227.748 2.449 1.521 3.714 2.201-.063-.033-.125-.063-.184-.096.807.431 1.606.874 2.399 1.334.824.48 1.68.91 2.487 1.415 1.623 1.018 3.21 2.098 4.798 3.17 1.357.916 2.67 1.861 3.933 2.906 1.357 1.127 2.668 2.297 3.96 3.495 1.184 1.088 2.376 2.163 3.448 3.364 1.019 1.142 1.997 2.311 2.953 3.507.658.822 1.254 1.678 1.838 2.546.058.016.118.024.175.044.155.218.307.44.456.661 1.344 2.008 2.516 4.121 3.545 6.304 1.034 2.194 1.915 4.462 2.687 6.761l-.017-.043c.884 2.657 1.618 5.363 2.249 8.091.788 5.374.815 10.809.105 16.208zm-5.368-16.947c-.418-2.175-.843-3.91-1.341-5.46-.612-1.96-1.428-4.019-2.492-6.295-.315-.649-.637-1.293-.965-1.934-.081-.189-.168-.379-.26-.566-.206-.441-.444-.846-.628-1.152l-.076-.133-.079-.13c-.216-.365-.428-.706-.647-1.041-1-1.57-2.2-3.161-3.671-4.863-1.216-1.394-2.624-2.828-4.187-4.26-.783-.703-1.569-1.374-2.333-1.996-.885-.788-1.836-1.594-2.822-2.398-1.279-1.025-2.566-1.899-3.671-2.638l-.807-.544-.127-.086c-1.111-.756-2.297-1.556-3.503-2.301-.479-.311-1.005-.6-1.457-.841l-.228-.127c-.238-.132-.474-.265-.709-.401l-.317-.187-.187-.11-.184-.106-.09-.051c-.303-.176-.604-.349-.913-.514-.864-.471-1.584-.866-2.327-1.312-.335-.211-.677-.417-1.015-.621l-.282-.17-.117-.068-.419-.248c-1.404-.848-2.915-1.746-4.467-2.566l-.087-.046-.127-.067-.09-.049c-.685-.368-1.3-.698-1.874-1.05-.545-.344-1.16-.768-1.877-1.298-1.431-1.031-2.633-1.957-3.671-2.828-1.63-1.334-3.202-2.801-4.589-4.091l-.124-.119-.087-.084-.076-.073-.504-.472c-1.782-1.664-3.377-3.203-4.743-4.578-.75-.75-1.495-1.507-2.237-2.265l-.282-.287c-.748-.762-1.495-1.523-2.251-2.275l-.626-.617-.184-.181c-.46-.452-.918-.907-1.362-1.378l-.098-.1c-.452-.465-1.092-1.123-1.747-1.753-1.176-1.058-2.335-2.052-3.73-3.239l-.09-.078-.065-.058-.493-.419c-.734-.619-1.479-1.226-2.223-1.832l-.456-.373c-.912-.728-1.923-1.383-3.18-2.057-1.536-.792-2.923-1.339-4.242-1.669-1.644-.363-3.261-.709-4.998-.937-1.636-.2-3.21-.303-4.672-.303h-.277c-.902.057-1.863.236-3.025.569-1.173.365-2.319.874-3.405 1.515-.547.371-1.068.855-1.45 1.206l-.07.068-.349.323-1.003.927-.522.482-.653.598c-.188.184-.35.344-.509.503-.088.088-.176.174-.261.261-.644.759-1.227 1.534-1.836 2.437-.436.612-1.081 1.54-1.636 2.509-.623 1.258-1.095 2.568-1.561 3.913l-.254.713c-.377 1.029-.764 2.122-1.035 3.151-.517 2.394-.767 4.913-.739 7.487.159 3.46.809 6.995 1.487 10.298.699 3.263 1.541 6.628 2.102 8.854l.043.173.027.106.027.1c.268 1.074.523 2.13.78 3.188l.152.638.138.557c.228.931.455 1.857.694 2.787l.409 1.611.108.414.068.27.103.403.076.304c.354 1.382.726 2.851 1.04 4.278.59 2.675 1.059 5.089 1.435 7.376.114.665.244 1.326.374 1.986.109.541.212 1.08.306 1.618.128.704.233 1.402.339 2.103l.03.2.149.998c.116.717.235 1.426.355 2.133l.097.649c.23 1.382.458 2.762.658 4.142.347 2.32.734 4.809 1.214 7.301.257 1.266.569 2.595.867 3.848l.051.251.038.128.06.241.027.108.068.314.04.184c.168.714.322 1.374.469 2.04l.024.121.06.201.038.179c.498 2.197 1.01 4.454 1.655 6.645.506 1.626 1.056 3.102 1.679 4.502.561 1.278 1.235 2.685 2.002 4.184 1.103 2.225 2.465 4.652 4.413 7.869.967 1.507 2.088 2.925 3.345 4.489l.225.279c.655.806 1.249 1.528 1.853 2.184.62.651 1.251 1.28 2.05 2.034.962.877 1.905 1.716 2.801 2.495l.39.338.068.06.498.427.003.003h.001l.362.31h0l.138.118.111.057.082.051.011.007s0 0 0 0l.276.18.16.101v.001l.13.082.214.135c1.359.752 2.977 1.631 4.661 2.462.491.206.987.406 1.485.595 3.985 1.448 8.224 2.42 12.599 2.893 1.704.122 3.223.187 4.518.187 2.936 0 5.959-.252 8.991-.744 4.483-.856 8.798-2.241 12.826-4.119 3.676-1.788 7.14-4.01 10.301-6.6 3.229-2.77 6.163-5.993 8.723-9.573 2.606-3.783 4.773-7.912 6.436-12.274 1.682-4.632 2.793-9.486 3.305-14.43.379-4.711.184-9.427-.574-14.017zm-2.585 12.699c-.016 1.117-.092 2.319-.235 3.677-.063.768-.168 2.056-.436 3.234-.068.3-.133.6-.195.904l-.017.108c-.151.765-.309 1.513-.525 2.232-.431 1.361-.929 2.684-1.363 3.818-.661 1.697-1.571 3.913-2.763 6.013-.68 1.152-1.349 2.276-2.099 3.319-.436.58-.889 1.156-1.384 1.757l-.12.149-.265.33-.409.511c-.691.888-1.457 1.841-2.37 2.795-1.027 1.099-1.872 1.941-2.736 2.722-1.493 1.37-3.535 3.243-5.724 4.804l-.455.325-.076.054c-.85.603-1.815 1.288-2.757 1.845-.921.525-1.929 1.053-2.883 1.545l-.671.35c-1.306.67-2.59 1.311-3.942 1.782-1.11.368-2.142.695-3.15 1.001-1.181.336-2.424.617-3.801.858-.666.125-1.335.222-2.007.319l-.273.044c-.466.067-.935.137-1.398.216l-.336.06c-1.953.336-3.971.682-5.997.682-.26 0-.52-.006-.783-.019-1.685-.073-2.915-.195-3.988-.398-.85-.151-1.698-.325-2.527-.496l-.49-.1c-.943-.178-2.032-.457-3.329-.846-1.233-.388-2.544-.809-3.844-1.383-2.351-1.053-5.085-2.368-7.541-4.126-1.32-.961-2.268-1.697-3.075-2.387-.894-.752-1.774-1.594-2.693-2.574-.883-.93-2.029-2.161-3.05-3.455-.639-.796-1.324-1.729-2.156-2.936-1.444-2.13-2.684-4.383-3.692-6.697-.872-2.07-1.593-4.24-2.227-6.153l-.062-.176-.033-.1-.273-.831c-.821-2.509-1.552-4.778-2.213-7.19-.583-2.188-1.116-4.475-1.734-7.419-.604-2.903-1.002-5.228-1.254-7.314-.122-.966-.238-1.934-.352-2.901l-.019-.162-.016-.138c-.409-3.442-.835-7.003-1.482-10.426-.528-2.543-1.021-4.798-1.474-6.697-.409-1.822-.959-3.745-1.4-5.287l-.06-.203-.043-.141-.528-1.862c-.187-.676-.382-1.352-.577-2.027l-.027-.094-.025-.092-.035-.133c-.371-1.299-.88-3.076-1.276-4.759-.601-2.671-1.132-5.242-1.72-8.337-.428-2.176-.691-4.601-.823-7.629-.133-2.542-.017-5.213.349-8.163.13-1.104.333-2.26.615-3.534l.07-.303c.065-.297.133-.598.203-.899l.009.006.17.119.011.009v-.001l.019.016c.004 0 .021-.014.037-.031l.006-.006c.015-.015.03-.031.03-.036l.127-.454.06-.19c.282-.85.536-1.618.924-2.267.742-1.185 1.324-2.086 2.061-2.915.872-1.008 1.877-2.021 2.985-3.014 1.599-1.434 3.538-2.563 5.924-3.458 1.163-.419 2.151-.663 3.024-.736.279-.03.558-.038.837-.046.195-.006.387-.011.577-.022l.3-.021c.279-.022.558-.041.835-.041.869.003 1.701.084 2.619.26.639.106 1.23.284 1.931.506l.309.103c.423.138.845.276 1.26.433l.067.027.038.017v-.001c.304.122.61.259.916.4l.154.068.29.136.044.019.009.005.023.011c.967.452 1.88.879 2.752 1.404 1.062.66 2.135 1.394 2.999 1.981l.114.075.151.103.09.057c.875.617 1.801 1.407 2.3 1.832l.376.325c.293.243.588.479.883.714l.13.105c.561.434 1.105.861 1.601 1.337 2.62 2.425 4.475 4.319 6.014 6.142.623.726 1.303 1.562 2.083 2.552l.062.079.084.102.108.133c.829 1.028 1.645 2.035 2.503 3.02l.342.379.157.17.116.128.065.07c.818.901 1.745 1.918 2.677 2.857.566.565 1.183 1.145 1.714 1.64l.125.119.13.122.217.203.178.165.179.165.182.171c.308.286.612.573.91.862l.485.469.07.065.076.07.07.068.065.062c.764.733 1.715 1.645 2.66 2.43 1.144.92 2.382 1.751 3.549 2.511l.084.056c.509.347 1.273.85 1.999 1.245.818.455 1.634.91 2.441 1.383.994.598 2.04 1.131 3.026 1.626l.124.065.076.041.079.041.241.127c.731.376 1.533.79 2.286 1.209 1.723.993 3.546 2.068 5.214 3.299l.155.1.111.089.103.068c.108.078.216.154.328.23l.178.127c.534.389 1.103.796 1.62 1.218.374.297.74.605 1.103.915.406.346.812.689 1.232 1.019 2.216 1.724 4.044 3.31 5.756 4.996.751.727 1.864 1.839 2.866 3.068.724.874 1.485 1.872 2.262 2.971l.073.108.046.07c1.336 1.928 2.72 3.919 3.839 6.016.598 1.15 1.227 2.405 1.75 3.785.311.85.671 1.889 1.17 3.369.39 1.215.761 2.408 1.01 3.607l.125.479c.284 1.253.512 2.298.661 3.337.314 1.953.271 3.915.23 5.815l-.03.871zm-5.257 3.341c-.075.734-.161 1.416-.284 2.101-.164.873-.381 1.846-.636 2.824.255-.977.473-1.951.638-2.825.122-.684.207-1.366.282-2.1zm-9.584 20.906c.336-.416.666-.83.999-1.25l.068-.084.057-.07c.328-.414.658-.828.991-1.239.464-.575.854-1.098 1.215-1.602-.361.504-.752 1.026-1.215 1.601-.333.412-.663.825-.991 1.239l-.057.07-.068.084c-.333.419-.663.834-.999 1.25-.442.534-.926 1.043-1.39 1.523.464-.48.948-.988 1.39-1.522zm-4.581 4.627c.721-.651 1.487-1.353 2.229-2.107l.282-.287.049-.051.089-.095.109-.113.059-.062-.06.061-.108.113-.089.095-.049.051-.282.287c-.743.755-1.509 1.456-2.23 2.108-.623.556-1.447 1.28-2.297 1.973-.429.34-.873.669-1.317.991.444-.321.889-.651 1.318-.991.851-.693 1.674-1.417 2.297-1.973zM87.825 84.119c-3.237-4.367-6.963-8.17-11.075-11.304-4.069-3.112-8.182-5.222-12.225-6.271-1.362-.343-2.736-.552-4.083-.623l-.165-.002h-.168c-.149 0-.301.002-.455.014h-.001l.002-.003c-.248.025-.456.06-.631.089-.203.051-.406.113-.614.184-.379.15-.636.265-.833.37-.252.138-.493.284-.726.446-.346.247-.692.535-1.026.855-.286.268-.574.579-.879.949l-.184.216c-.195.289-.393.582-.593.87-.141.263-.276.528-.406.798-.206.439-.404.885-.599 1.329l-.111.248-.116.263c-.052.146-.103.289-.157.435l-.049.13c-.232.819-.414 1.629-.558 2.475-.324 1.786-.509 3.713-.549 5.728-.103 3.722.277 7.834 1.161 12.567.766 4.204 1.955 8.443 3.532 12.6 1.703 4.46 3.588 8.212 5.761 11.472 2.432 3.605 5.005 6.277 7.865 8.172 2.439 1.605 5.262 2.489 7.949 2.489.557 0 1.056-.031 1.484-.092 1.036-.121 1.859-.283 2.667-.527.927-.297 1.857-.691 2.843-1.204 1.641-.862 3.299-2.109 5.069-3.812 1.909-1.817 3.412-3.67 4.468-5.507 1.043-1.831 1.774-3.94 2.115-6.097.703-4.255.208-8.909-1.473-13.835-1.58-4.574-4.015-9.09-7.24-13.422zm.895-20.427l-.005-.002.005.002zm-7.21-3.931c-.55-.322-1.058-.629-1.528-.922.47.294.977.6 1.528.922zm-20.538 83.255c.128.055.252.11.382.163-.129-.053-.254-.108-.382-.163zm34.663-3.799c.307-.196.627-.407.957-.633-.33.226-.65.437-.957.633zm-22.516 6.432c1.336 0 2.853-.146 4.51-.427.856-.154 1.715-.289 2.571-.422l.257-.038.355-.056c.843-.133 1.704-.271 2.547-.426.236-.054.48-.114.727-.176-.247.062-.49.122-.726.175-.843.154-1.704.292-2.547.425l-.355.057-.257.038c-.856.133-1.714.268-2.57.422-1.658.283-3.176.428-4.512.428-.298 0-.596-.009-.892-.019-.714-.064-1.44-.155-2.17-.261.73.106 1.456.198 2.171.262.295.01.593.018.891.018zm-22.106-8.626c.484.408.975.793 1.467 1.173-.491-.381-.983-.765-1.467-1.173-1.243-1.063-2.344-2.212-3.256-3.196-.43-.488-.831-.988-1.236-1.488.405.5.806 1.001 1.235 1.489.913.982 2.013 2.132 3.257 3.195zm-14.501-26.83c-.285-.986-.556-1.984-.789-2.979l-.03-.126.028.128c.234.994.506 1.991.791 2.977zm-3.987-22.109c.078.596.151 1.191.222 1.787l.081.662.09.748c.143 1.195.287 2.388.438 3.582l.101.782.01.076.011.081c.111.884.222 1.761.358 2.616.146.869.311 1.727.463 2.511l.035.181.052.266.024.127c.333 1.562.71 3.169 1.043 4.587l.111.478.024.103.051.196-.049-.197-.025-.103-.112-.478c-.332-1.418-.709-3.025-1.042-4.585l-.024-.127-.051-.265-.036-.181c-.151-.785-.317-1.643-.463-2.511-.135-.856-.246-1.733-.357-2.617l-.011-.081-.011-.077-.1-.781c-.152-1.194-.296-2.387-.439-3.583l-.09-.747-.081-.663c-.07-.595-.143-1.19-.222-1.786-.318-2.584-.744-5.153-1.268-7.636-.164-.822-.326-1.603-.486-2.366.16.764.321 1.546.485 2.368.526 2.482.951 5.049 1.268 7.633zM29.25 71.577c-.111-.409-.222-.809-.329-1.189.107.381.218.78.329 1.189zm-2.371-8.432c-.164-.579-.325-1.171-.48-1.778.156.607.316 1.199.48 1.778zm-1.737-7.477c.03.158.062.305.092.461-.151-.785-.3-1.587-.442-2.421l-.038.079c.129.628.256 1.255.388 1.881zm1.106 5.088c-.129-.521-.255-1.05-.378-1.592.123.542.249 1.071.378 1.592zm-.529-2.271c-.122-.56-.241-1.132-.358-1.717.117.585.236 1.158.358 1.717zm-.966-4.696v-.001l-.002.005c.008.027.013.056.018.08l-.016-.084zm-.021.065c.002.009.002.019.005.03l.008-.049.008.044-.003-.081v-.005l-.034.07.005.021.011-.03zm-.027.028c-.015-.076-.021-.142-.032-.213.011.072.016.138.031.215l.001-.002zm-.083-.464c-.007-.024-.018-.046-.022-.073l-.001-.005v.003c.005.028.016.05.023.075zm4.744-25.929l.001-.001c.574-.483 1.155-.895 1.738-1.273-.583.377-1.165.79-1.739 1.273v.001zm8.826-3.226c-.361 0-.724.025-1.087.049l-.281.016-.366.019c-.536.027-.918.049-1.319.1-.295.078-.607.191-.914.296.307-.105.619-.218.913-.295.401-.051.783-.073 1.32-.1l.365-.019.283-.016c.363-.025.725-.049 1.086-.049h.09c.446.054.862.121 1.248.2-.386-.079-.802-.146-1.249-.201h-.089zm7.882 3.105c.168.093.328.171.513.29l.092.011-.093-.013c-.185-.117-.344-.195-.512-.288zm9.021 7.142c-1.011-.982-1.932-1.864-2.966-2.689-.48-.379-.949-.772-1.417-1.164-.509-.422-.986-.817-1.466-1.202-.173-.135-.351-.256-.527-.385.175.129.353.25.526.385.48.385.957.78 1.466 1.202.468.393.937.785 1.416 1.164 1.035.826 1.956 1.707 2.967 2.689l.485.48.411.402-.41-.403-.485-.479zm18.444 19.637c-.951-.885-1.891-1.781-2.828-2.676-.75-.717-1.503-1.434-2.259-2.146-.834-.779-1.715-1.686-2.687-2.771l-.864-.941c-.726-.785-1.376-1.494-1.981-2.219-.666-.795-1.316-1.602-1.966-2.412l-.065-.081-.119-.146-.141-.173-.06-.07c-.788-.972-1.603-1.978-2.416-2.92-.133-.143-.27-.284-.405-.426.135.142.272.284.405.427.812.94 1.627 1.946 2.416 2.92l.06.07.141.173.119.147.065.081c.65.809 1.3 1.616 1.966 2.411.604.725 1.254 1.434 1.98 2.218l.864.942c.974 1.085 1.852 1.991 2.687 2.771.756.711 1.509 1.428 2.259 2.145.938.896 1.878 1.791 2.828 2.676.222.208.458.397.687.594-.229-.197-.465-.386-.686-.594zm32.457 22.976c-1.882-2.03-4.085-4.035-6.542-5.959l-.403-.314-.095-.07c-.377-.295-.756-.592-1.122-.9l-.444-.383-.119-.102-.062-.055-.155-.129-.113-.092c-.279-.236-.55-.463-.819-.671l-.742-.551c.239.177.481.356.741.551.269.208.54.435.819.671l.113.092.155.129.062.055.119.102.445.383c.365.308.744.605 1.121.9l.095.07.403.314c2.458 1.924 4.659 3.929 6.543 5.96.879 1.044 1.672 2.115 2.432 3.178-.76-1.063-1.553-2.134-2.432-3.179zm10.405 21.089l-.035-.148.033.147.022.155.008.046-.007-.046-.021-.154zm.081.456l-.008-.038.007.036c.204 1.284.292 2.631.276 4.239l-.016 1.063c-.011.939-.022 1.857-.062 2.785-.03.366-.059.709-.088 1.039l.089-1.04c.04-.927.051-1.845.062-2.784l.016-1.063c.017-1.608-.073-2.955-.276-4.237zm-25.19 12.804c-.186.751-.403 1.487-.678 2.189-.324.711-.722 1.396-1.153 2.064-.175.273-.341.551-.533.815-1.317 1.639-2.769 3.103-4.313 4.351-.616.456-1.224.841-1.832 1.19-.433.249-.866.488-1.305.689-.389.152-.787.285-1.189.399l-.01.004-.038.009c-.394.11-.792.203-1.192.277-.404.035-.78.054-1.116.054-.358 0-.715-.016-1.059-.049-.359-.065-.715-.15-1.068-.245-.428-.116-.852-.249-1.268-.409-.202-.092-.406-.215-.609-.319-.755-.388-1.514-.837-2.267-1.389-1.376-1.104-2.695-2.462-4.034-4.146-.359-.482-.701-.994-1.045-1.502-.652-.96-1.286-1.953-1.889-3.017-.012-.022-.026-.041-.038-.063l-.039-.075c-.477-.848-.938-1.733-1.388-2.654-.415-.851-.822-1.729-1.217-2.647-1.607-3.852-2.851-7.879-3.769-12.008-.416-1.874-.787-3.762-1.057-5.677-.547-4.37-.615-8.17-.206-11.619.089-.59.196-1.143.312-1.68.252-1.175.564-2.24.955-3.208.098-.161.222-.316.337-.474.076-.104.139-.212.222-.313.065-.075.132-.151.2-.224l.1-.087c.041-.033.086-.06.128-.092.104-.08.206-.162.319-.234.103-.043.206-.084.304-.122.182-.059.361-.116.545-.165l.057-.014.061-.017.09-.024h.003c.23.016.463.037.693.062 1.314.212 2.62.552 3.962 1.026.393.139.787.285 1.188.448.606.267 1.208.557 1.809.867 1.903.98 3.788 2.178 5.716 3.634 3.25 2.562 6.273 5.599 8.982 9.024 1.431 1.874 2.701 3.793 3.829 5.737.947 1.633 1.799 3.282 2.522 4.943.304.74.574 1.468.823 2.189.667 1.933 1.142 3.808 1.432 5.68.219 1.843.238 3.563.057 5.254-.085.534-.206 1.053-.334 1.568zm-40.255 42.287l.04.022s0 0 0 0l-.04-.022zm70.126-81.583l-.007-.009-.012-.02c.005.01.013.018.019.029z"/>
</svg>
