<?xml version="1.0" encoding="utf-8"?>
<!-- Generator: Adobe Illustrator 24.1.0, SVG Export Plug-In . SVG Version: 6.00 Build 0)  -->
<svg version="1.1" id="righe" xmlns="http://www.w3.org/2000/svg" xmlns:xlink="http://www.w3.org/1999/xlink" x="0px" y="0px"
	 viewBox="0 0 39.95 25.89" style="enable-background:new 0 0 39.95 25.89;" xml:space="preserve">
<style type="text/css">
	.st0{fill:#E42325;}
	.st1{fill:#1B1E1D;}
	.st2{fill:#FFFFFF;}
	.st3{fill:#EC7876;}
	.st4{fill:none;stroke:#010305;stroke-miterlimit:10;}
	.st5{fill:none;stroke:#010305;stroke-width:0.25;stroke-miterlimit:10;}
</style>
<g id="XMLID_30_">
	<g>
		<path class="st0" d="M8.42,7.8C7.67,7.87,7.29,7.84,7.29,7.84C6.43,7.79,5.67,7.7,5.02,7.59c-2.99-0.48-4.03-1.4-4.37-1.85
			C0.64,5.72,0.62,5.7,0.61,5.69C0.57,5.61,0.53,5.56,0.51,5.53c0-0.01-0.01-0.01-0.01-0.01C0.5,5.51,0.5,5.51,0.5,5.51
			c0.01-0.41,0.43-0.45,0.43-0.45c1.45-0.13,9.86-3.42,9.86-3.42s2.68-1.21,4.32-1.14c1.64,0.07,3.13,0.95,3.13,0.95
			S19,1.89,19.96,1.87c0.96,0.03,1.81-0.4,1.81-0.4s1.49-0.86,3.14-0.91c1.64-0.05,4.31,1.19,4.31,1.19s8.36,3.38,9.81,3.53
			c0,0,0.43,0.04,0.43,0.45c0,0,0,0-0.01,0.01c0,0,0,0,0,0.01c0,0,0,0.01-0.01,0.01c-0.02,0.04-0.08,0.12-0.16,0.24
			c-0.37,0.46-1.51,1.4-4.68,1.82c-0.59,0.08-1.24,0.14-1.97,0.18c0,0-0.53,0.02-1.56-0.12c-1.05-0.13-2.6-0.43-4.65-1.07
			c-0.11-0.03-0.21-0.07-0.33-0.1c0,0-2.98-0.76-6.16-0.87c-0.07,0-0.14,0.01-0.22,0c-3.1,0.1-5.88,0.8-5.88,0.8
			c-0.29,0.09-0.57,0.18-0.85,0.25C10.9,7.48,9.36,7.71,8.42,7.8z"/>
		<path class="st0" d="M39.28,5.99c0.1-0.12,0.14-0.2,0.16-0.24c-0.23,0.77-6.24,20-19.72,19.64C6.23,25.6,0.72,6.3,0.51,5.53
			c0.01,0.02,0.04,0.08,0.09,0.16C0.62,5.7,0.64,5.72,0.65,5.75c0.85,1.34,5.33,7.96,12.13,11.05c2.11,0.96,4.45,1.58,6.97,1.59
			c3.78,0.02,7.17-1.29,10.03-3.07C35.04,12.04,38.5,7.16,39.28,5.99z"/>
		<path class="st1" d="M34.6,7.81c3.17-0.42,4.3-1.36,4.68-1.82c-0.78,1.17-4.24,6.05-9.49,9.33c0,0-4.23-1.06-8.31-0.86
			c-3.58,0.18-8.7,2.34-8.7,2.34C5.98,13.71,1.5,7.08,0.65,5.75c0.34,0.44,1.38,1.36,4.37,1.85l0,0.01c0,0,1.25,2.5,3.39,1.42
			c0,0,1.37,1.85,4.66,0.95c0,0,2.64,2.2,6.63,0.72c3.9,1.67,6.74-0.38,6.74-0.38c3.24,1.06,4.7-0.72,4.7-0.72
			C33.22,10.78,34.6,7.81,34.6,7.81L34.6,7.81z"/>
		<path class="st2" d="M34.6,7.81L34.6,7.81c0,0.01-1.38,2.97-3.46,1.78L31.07,7.9l0.01-0.03c1.03,0.14,1.56,0.12,1.56,0.12
			C33.37,7.95,34.02,7.89,34.6,7.81z"/>
		<path class="st2" d="M31.07,7.9l0.07,1.69c0,0-1.46,1.78-4.7,0.72l-0.09-3.25l0.08-0.26c2.05,0.64,3.6,0.94,4.65,1.07L31.07,7.9z"
			/>
		<path class="st2" d="M26.35,7.06l0.09,3.25c0,0-2.83,2.05-6.74,0.38L19.73,6l0-0.17c0.07,0,0.14-0.01,0.22,0
			C23.12,5.93,26.1,6.7,26.1,6.7c0.11,0.04,0.22,0.07,0.33,0.1L26.35,7.06z"/>
		<path class="st3" d="M21.48,14.46c4.08-0.2,8.31,0.86,8.31,0.86c-2.86,1.78-6.25,3.09-10.03,3.07c-2.52-0.01-4.86-0.63-6.97-1.59
			C12.78,16.79,17.9,14.64,21.48,14.46z"/>
		<path class="st2" d="M19.73,6l-0.03,4.68c-3.99,1.48-6.63-0.72-6.63-0.72l0.02-2.75l-0.09-0.34c0.28-0.08,0.56-0.16,0.85-0.25
			c0,0,2.78-0.7,5.88-0.8L19.73,6z"/>
		<path class="st2" d="M13.09,7.21l-0.02,2.75c-3.29,0.9-4.66-0.95-4.66-0.95L8.42,7.8c0.94-0.09,2.48-0.31,4.58-0.92L13.09,7.21z"
			/>
		<path class="st2" d="M8.42,7.8L8.41,9.02C6.27,10.1,5.02,7.6,5.02,7.6l0-0.01c0.66,0.11,1.41,0.2,2.27,0.25
			C7.29,7.84,7.67,7.87,8.42,7.8z"/>
	</g>
	<g>
		<path class="st4" d="M0.65,5.75c0.34,0.44,1.38,1.36,4.37,1.85c0.66,0.11,1.41,0.2,2.27,0.25c0,0,0.38,0.02,1.13-0.05
			c0.94-0.09,2.48-0.31,4.58-0.92c0.28-0.08,0.56-0.16,0.85-0.25c0,0,2.78-0.7,5.88-0.8c0.07,0,0.14-0.01,0.22,0"/>
		<path class="st4" d="M0.51,5.53c0.01,0.02,0.04,0.08,0.09,0.16"/>
		<path class="st4" d="M19.71,25.39C6.23,25.6,0.72,6.3,0.51,5.53C0.51,5.52,0.51,5.52,0.51,5.52"/>
		<path class="st4" d="M19.96,1.87C19,1.89,18.24,1.45,18.24,1.45s-1.49-0.87-3.13-0.95c-1.64-0.07-4.32,1.14-4.32,1.14
			s-8.4,3.29-9.86,3.42c0,0-0.42,0.03-0.43,0.45c0,0,0,0.01,0.01,0.01c0,0,0.01,0.01,0.01,0.01c0.02,0.03,0.05,0.08,0.09,0.16
			C0.62,5.7,0.64,5.72,0.65,5.75c0.85,1.34,5.33,7.96,12.13,11.05c2.11,0.96,4.45,1.58,6.97,1.59c3.78,0.02,7.17-1.29,10.03-3.07
			c5.25-3.28,8.71-8.16,9.49-9.33c0.08-0.12,0.13-0.2,0.16-0.24"/>
		<path class="st4" d="M19.96,1.87c0.96,0.03,1.81-0.4,1.81-0.4s1.49-0.86,3.14-0.91c1.64-0.05,4.31,1.19,4.31,1.19
			s8.36,3.38,9.81,3.53c0,0,0.43,0.04,0.43,0.45c0,0,0,0-0.01,0.01c0,0,0,0,0,0.01c0,0,0,0.01-0.01,0.01
			c-0.02,0.04-0.06,0.12-0.16,0.24c-0.37,0.46-1.51,1.4-4.68,1.82c-0.59,0.08-1.24,0.14-1.97,0.18c0,0-0.53,0.02-1.56-0.12
			c-1.05-0.13-2.6-0.43-4.65-1.07c-0.11-0.03-0.21-0.07-0.33-0.1c0,0-2.98-0.76-6.16-0.87"/>
		<path class="st4" d="M19.71,25.39C33.2,25.75,39.21,6.52,39.44,5.75c0.01-0.01,0.01-0.01,0.01-0.01"/>
		<path class="st4" d="M5.02,7.6c0,0,1.25,2.5,3.39,1.42c0,0,1.37,1.85,4.66,0.95c0,0,2.64,2.2,6.63,0.72"/>
		<polyline class="st5" points="8.41,9.02 8.42,7.8 8.42,7.7 		"/>
		<line class="st5" x1="13.07" y1="9.97" x2="13.09" y2="7.21"/>
		<line class="st5" x1="26.35" y1="7.06" x2="26.44" y2="10.31"/>
		<line class="st5" x1="19.73" y1="6" x2="19.7" y2="10.69"/>
		<line class="st5" x1="31.07" y1="7.9" x2="31.14" y2="9.59"/>
		<path class="st4" d="M19.7,10.69c3.9,1.67,6.74-0.38,6.74-0.38c3.24,1.06,4.7-0.72,4.7-0.72c2.08,1.19,3.46-1.77,3.46-1.77"/>
		<path class="st5" d="M29.79,15.32c0,0-4.23-1.06-8.31-0.86c-3.58,0.18-8.7,2.34-8.7,2.34"/>
	</g>
</g>
</svg>
