<?xml version="1.0" encoding="utf-8"?>
<!-- Generator: Adobe Illustrator 24.1.0, SVG Export Plug-In . SVG Version: 6.00 Build 0)  -->
<svg version="1.1" id="emoji" xmlns="http://www.w3.org/2000/svg" xmlns:xlink="http://www.w3.org/1999/xlink" x="0px" y="0px"
	 viewBox="0 0 47.02 59.22" style="enable-background:new 0 0 47.02 59.22;" xml:space="preserve">
<style type="text/css">
	.st0{fill:#FADCBC;stroke:#FADCBC;stroke-width:2;stroke-linecap:round;stroke-linejoin:round;}
	.st1{fill:none;stroke:#000000;stroke-width:2;stroke-linecap:round;stroke-linejoin:round;}
</style>
<g id="skin">
	<g id="Pinching_Hand">
		<path class="st0" d="M31.25,22.26l-1.49-2.43c-2.53-4.25-9.44-14.64-9.6-14.85c-1.15-1.51-2.63-2.3-4.14-1.15
			c-1.51,1.14-0.41,2.61,0.46,4.69l6.92,14.49l2.77,5.7l-7.02-5.51c-0.23-0.26-0.49-0.48-0.79-0.65c-0.4-0.3-0.88-0.48-1.38-0.52
			c-0.6-0.13-1.23-0.12-1.83,0.06l-9.62,3.05c-0.38,0.12-0.75,0.28-1.1,0.48c-1.4,0.99-1.85,1.29-1.65,3.17
			c0.52,1.6,2.23,2.47,3.83,1.95c0.11-0.04,0.22-0.08,0.32-0.12l8.72-1.98l0.37,0.31l6.99,6.22c-0.57,2-1.26,3.96-2.07,5.88
			c-0.51,0.91-1.59,1.34-2.58,1.02c-2.03-0.62-4.11-1.11-6.21-1.46c-0.24-0.04-0.48-0.12-0.69-0.24c-4.09-2.24-8.51-3.41-9.46-2.46
			c-0.95,0.87-0.62,1.33-0.15,2.76c0.76,2.29,6.6,5.42,7.93,6.93l6.55,5.45c0,0,6.4,4.61,10.23,4.59
			c12.06-0.07,18.95-14.75,18.96-18.52c0.01-1.64,0.19-3.63,0.19-3.63c-0.18-1.02-0.44-2.03-0.78-3.01l-0.01-0.01
			c0.02-0.18,0.03-0.36,0.03-0.54c0,0-0.93-16.32-1.17-20.24c-0.03-0.76-0.22-1.5-0.56-2.18c-0.42-1.02-1.47-1.63-2.56-1.5
			c-1.63,0.19-2.16,1.88-2.28,3.78l-0.57,8.09c-1.38-5.52-4.82-16.4-4.9-16.62c-0.35-1.49-1.84-2.43-3.33-2.08
			c-0.03,0.01-0.07,0.02-0.1,0.03c-1.78,0.67-2.02,2.69-1.74,4.46l0.98,6.69l1.01,7.45"/>
	</g>
</g>
<g id="line">
	<g id="Pinching_Hand-2">
		<path class="st1" d="M22.75,35.32c-0.87,2.52-1.12,4.35-1.8,5.59c-0.51,0.91-1.59,1.34-2.58,1.02c-2.03-0.62-4.11-1.11-6.21-1.46
			c-0.24-0.04-0.48-0.12-0.69-0.24c-4.1-2.24-8.51-3.41-9.46-2.46c-0.96,0.66-1.29,1.92-0.78,2.96C2,43.04,8.47,45.96,9.8,47.47
			l5.85,5.85c0,0,6.97,4.92,10.8,4.9C38.51,58.15,46,42.42,46.02,38.65c-0.01-1.1-0.1-2.2-0.28-3.29c-0.18-1.02-0.44-2.03-0.78-3.01
			"/>
		<path class="st1" d="M15.52,28.87L7.01,30.9c-1.77,0.67-3.75-0.23-4.42-2c0-0.01-0.01-0.02-0.01-0.03
			c-0.19-1.88,0.46-2.4,1.86-3.39c0.35-0.2,0.72-0.36,1.1-0.48l9.62-3.05c0.59-0.17,1.22-0.19,1.83-0.06"/>
		<line class="st1" x1="22.75" y1="35.32" x2="15.65" y2="28.95"/>
		<path class="st1" d="M16.03,21.79c0.83-0.02,1.64,0.2,2.35,0.63c0.29,0.18,0.56,0.4,0.79,0.65l8.33,6.69"/>
		<path class="st1" d="M23.45,23.1L16.03,8.39c-0.87-2.08-1.51-3.55,0-4.69c1.51-1.15,2.99-0.36,4.14,1.15
			c0.16,0.2,8.55,13.02,11.08,17.27v0.01"/>
		<path class="st1" d="M39.11,24.57c-1.38-5.52-6.08-21.2-6.16-21.42c-0.35-1.49-1.84-2.43-3.33-2.08c-0.03,0.01-0.07,0.02-0.1,0.03
			c-1.78,0.67-2.02,2.69-1.74,4.46l0.98,6.69"/>
		<path class="st1" d="M38.42,11.68c0.12-1.91,0.64-3.6,2.28-3.78c1.09-0.13,2.14,0.48,2.56,1.5c0.34,0.68,0.53,1.42,0.56,2.18
			c0.23,3.92,1.17,20.24,1.17,20.24c0.01,0.18,0,0.36-0.03,0.54"/>
		<line class="st1" x1="30.69" y1="21.26" x2="34.18" y2="26.77"/>
	</g>
</g>
</svg>
