<?xml version="1.0" encoding="utf-8"?>
<!-- Generator: Adobe Illustrator 24.1.0, SVG Export Plug-In . SVG Version: 6.00 Build 0)  -->
<svg version="1.1" id="emoji" xmlns="http://www.w3.org/2000/svg" xmlns:xlink="http://www.w3.org/1999/xlink" x="0px" y="0px"
	 viewBox="0 0 43.99 71.79" style="enable-background:new 0 0 43.99 71.79;" xml:space="preserve">
<style type="text/css">
	.st0{fill:#FADCBC;stroke:#FADCBC;}
	.st1{fill:none;stroke:#000000;stroke-width:2;stroke-linecap:round;stroke-linejoin:round;}
	.st2{fill:none;stroke:#000000;stroke-width:2;stroke-linecap:round;stroke-miterlimit:10;}
</style>
<g id="skin">
	<polygon class="st0" points="42,36.18 43.41,5.04 41.3,1.38 37.22,1.8 34.54,8.13 31.87,27.69 30.18,29.66 27.79,27.13 24.69,3.63 
		21.6,1.38 17.61,2.13 16.86,6.54 18.56,29.01 17.25,30.38 14.61,29.33 11.7,30.27 10.48,32.43 9.64,34.68 7.2,33.27 4.67,33.55 
		2.88,35.52 2.13,37.77 0.51,45.34 1.62,54.05 4.48,60 11.23,67.79 20.61,70.79 29.15,69.76 37.78,64.69 41.34,59.07 42.37,45.46 	
		"/>
</g>
<g id="line">
	<path class="st1" d="M40.95,30.46l2.03-24.97C43.17,3.02,41.56,1,39.4,1c-2.39,0.21-4.29,2.08-4.56,4.46L32.11,25
		c-0.34,2.45-1.44,4.46-2.44,4.46c-1,0-2.08-2.01-2.39-4.47L24.77,5.47C24.54,3.09,22.64,1.21,20.25,1c-2.17,0-3.7,2.01-3.41,4.47
		l2.84,23.67"/>
	<path class="st1" d="M2.4,51.28"/>
	<path class="st1" d="M42.09,51.79c0,11.11-9.03,19-20.14,19"/>
	<path class="st1" d="M5.62,49.98c-2.32-0.17-4.08-2.18-3.94-4.5V37.6c-0.29-2.18,1.24-4.17,3.41-4.47
		c2.18-0.29,4.17,1.24,4.47,3.41c0.05,0.35,0.05,0.7,0,1.05v7.88C9.7,47.8,7.95,49.81,5.62,49.98z"/>
	<path class="st1" d="M30.95,48.65v-2.63c0-1.24-2.01-2.48-4.48-2.75l-1.18-0.13c-2.46-0.27-4.48-2.08-4.48-4.25
		c0-2.16,2.03-3.75,4.5-3.75h11.26c2.48-0.05,4.57,1.84,4.77,4.31l0.74,12.62"/>
	<path class="st1" d="M24.45,52.1c1.84-1.67,4.08-2.81,6.5-3.33"/>
	<path class="st1" d="M13.5,55.35c-2.32-0.17-4.08-2.18-3.94-4.5V33.96c-0.29-2.18,1.24-4.17,3.41-4.47
		c2.18-0.29,4.17,1.24,4.47,3.41c0.05,0.35,0.05,0.7,0,1.05v16.88C17.58,53.17,15.83,55.17,13.5,55.35z"/>
	<path class="st2" d="M2.57,54.07c1.29,9.68,9.61,16.87,19.38,16.72c10.88,0,20.14-7.69,20.14-19"/>
</g>
</svg>
