<svg xmlns="http://www.w3.org/2000/svg" width="101" height="190">
    <path fill="#FFD101" fill-rule="evenodd" stroke="#000" stroke-width="6" d="M73.216 118.339c-1.267 1.781-2.528 3.538-3.743 5.285-3.2 4.578-6.424 9.151-9.648 13.723-5.969 8.475-11.948 16.953-17.81 25.535-3.027 4.446-5.535 8.24-8.59 12.67-.916 1.329-3.801 4.201-6.64 4.509-.88.084-2.762-1.348-2.645-2.928.373-4.923.858-7.69 1.595-10.664.558-2.324 1.28-4.765 2.213-8.466 2.356-9.332 4.662-18.677 6.981-28.014 1.659-6.72 4.288-13.437 5.17-20.307.446-3.442-2.373-2.386-4.573-1.911-3.273.708-6.449 1.912-9.515 3.08-.513.194-1.015.385-1.54.581-2.509.954-5.099 1.866-7.717 2.432-1.907.412-3.673.604-5.41.603-1.511.009-2.584-.419-3.3-1.267-2.043-2.444-.992-8.102-.304-11.844.139-.772.268-1.483.361-2.092 1.295-8.503 2.541-17.019 3.8-25.525 2.315-15.721 4.706-31.964 7.271-47.892.753-4.639 3.259-7.407 7.892-8.702 4.741-1.342 9.473-2.399 13.468-3.262 1.749-.379 3.49-.743 5.239-1.12 1.751-.366 3.491-.731 5.241-1.108 1.715-.371 3.439-.755 5.138-1.146.18-.039.37-.091.562-.133 1.342-.348 2.924-.843 4.593-1.369 2.432-.772 5.183-1.649 7.79-2.213 3.735-.806 6.394-.803 8.105.005 2.366 1.103 1.658 5.238 1.235 7.697-1.72 10.032-3.691 20.047-6.657 29.782-2.385 7.784-6.335 14.999-9.09 22.603-.635 1.751-1.205 3.535-1.674 5.345-1.118 4.318 1.329 4.107 4.69 3.263 2.163-.538 4.618-1.15 7.224-1.713 9.141-1.974 14.03-1.876 16.792-.199 1.251.755 2.279 4.126 2.198 5.769-.771 15.54-9.564 26.239-18.702 38.993z"/>
</svg>
