<?xml version="1.0" encoding="utf-8"?>
<!-- Generator: Adobe Illustrator 24.1.0, SVG Export Plug-In . SVG Version: 6.00 Build 0)  -->
<svg version="1.1" id="Livello_1" xmlns="http://www.w3.org/2000/svg" xmlns:xlink="http://www.w3.org/1999/xlink" x="0px" y="0px"
	 viewBox="0 0 128 128" style="enable-background:new 0 0 128 128;" xml:space="preserve">
<style type="text/css">
	.st0{display:none;}
	.st1{display:inline;}
	.st2{fill:#ACABAC;}
	.st3{fill:#BAB9B9;}
	.st4{fill:#9B9A9A;}
	.st5{fill:#898888;}
	.st6{fill:#E01E25;}
	.st7{fill:#A6231C;}
	.st8{fill:#871A19;}
</style>
<path d="M97.5,88.8c0-0.1-0.1-0.2-0.3-0.3L83.1,75.3l-28-26.5l2.7-11.7c0.6-2.8-0.2-5.6-2.2-7.5c0,0-0.2-0.3-0.3-0.4
	C53,27.1,50.5,26,47.7,26c-4.6,0-8.9,3.2-11,6.1c-0.1,0.1-0.2,0.3-0.3,0.4c-0.5,0.6-0.9,1.3-1.1,2l-5.7,22.6c0,0.1,0,0.2,0,0.4v0.2
	l0.2,15.3c0,0.6,0.2,1.1,0.6,1.5c0.1,0.1,0.1,0.1,0.2,0.2l0.9,0.6c0.2,0.2,0.5,0.3,0.8,0.3c0.1,0,0.3,0,0.4-0.1l10.3-2.8
	c0.6-0.1,0.9-0.4,1.1-0.6c0,0,0.1-0.1,0.1-0.1l5.7-6.6l26.6,25.1l10.6,10c0.5,0.6,1.4,1,2.3,1c0.4,0,0.9-0.1,1.3-0.2l1.6-0.5
	c2.2-0.7,4.1-2.6,4.5-4.5l1.2-5.2C98.3,90.4,98.1,89.5,97.5,88.8z"/>
<g id="point_1_" class="st0">
	<path class="st1" d="M112,103.2c-0.1-0.1-0.2-0.2-0.3-0.3l-7.6-7.1l-21.2-20c0,0,0,0-0.1-0.1l-0.2-0.2c0,0,0,0-0.1,0l-39-36.9
		l1-4.2c0-0.1,0.1-0.3,0.1-0.5l0.1-19.2c0-0.6-0.2-1.1-0.6-1.5l-1.5-1.4c-0.4-0.4-0.9-0.5-1.4-0.5c-0.2,0-0.4,0-0.6,0.1l-10.3,3.1
		c-0.5,0.1-0.9,0.5-1.1,0.9l-7.3,11.9c-0.1,0.2-0.2,0.4-0.2,0.6l-6.3,26.8c-0.2,0.7,0.1,1.4,0.6,1.9l8.8,8.3
		c0.4,0.4,0.9,0.5,1.4,0.5c0.2,0,0.4,0,0.6-0.1l10.3-3.1c0.7-0.2,1.2-0.8,1.4-1.5l0.8-3.4l32.9,31c0,0,0,0,0.1,0.1l0.3,0.3l0,0
		c0,0,0,0,0.1,0.1l17,16.2l11.3,10.7c0.1,0.1,0.1,0.1,0.2,0.1c0.6,0.6,1.5,0.9,2.4,0.9c0.5,0,0.9-0.1,1.4-0.2l1.6-0.5
		c2.2-0.7,4.2-2.7,4.7-4.7l1.2-5C112.9,105.1,112.7,104,112,103.2z M73.8,87.3L73.8,87.3L73.8,87.3L73.8,87.3z M103.6,114.7
		c-0.1,0-0.3,0-0.4,0C103.4,114.7,103.5,114.7,103.6,114.7S103.7,114.7,103.6,114.7z"/>
	<g class="st1">
		<g>
			<polygon class="st2" points="26.1,63.3 36.4,60.2 42.6,33.9 32.3,37 			"/>
			<polygon class="st3" points="32.4,17.8 32.3,37 26.1,63.3 17.3,55 23.6,28.2 30.9,16.4 			"/>
			<polygon class="st4" points="42.6,14.7 32.4,17.8 32.3,37 42.6,33.9 			"/>
			<polygon class="st5" points="30.9,16.4 41.1,13.3 42.6,14.7 32.4,17.8 			"/>
			<path class="st6" d="M33.1,41.6l-1.2,5c-0.1,0.5-0.1,0.9,0.1,1.2l0,0l70.4,66.3l8-9.8L40.2,38.2l-0.1,0.1c-0.4-0.5-1.1-0.6-2-0.4
				l-1.6,0.5C34.9,38.8,33.4,40.3,33.1,41.6z"/>
			<path class="st7" d="M74.5,80.6l-1.2,5.1c-0.1,0.5-0.1,0.9,0.1,1.2l0.3,0.3l0,0l28.6,26.9l8-9.8L81.5,77.2l0,0L81.3,77
				c-0.4-0.3-1-0.4-1.8-0.1l-1.6,0.5C76.3,77.8,74.8,79.3,74.5,80.6z"/>
			<path class="st8" d="M110.7,105.8l-1.2,5c-0.3,1.3-1.8,2.8-3.4,3.3l-1.6,0.5c-1.5,0.5-2.5-0.3-2.2-1.6l1.2-5
				c0.3-1.3,1.8-2.8,3.4-3.3l1.6-0.5C110,103.7,111,104.4,110.7,105.8z"/>
		</g>
	</g>
</g>
<g id="Livello_2_1_">
	<g>
		<path class="st5" d="M54.4,30.7c1.7,1.6,2.4,3.9,1.9,6.2l-2.8,12.3l-1.6,6.7c-0.3,1.3-7.5,10.8-8.7,14.6c-0.1,0.4-0.6,0.5-1,0.2
			l-3-2.9c-0.5-0.5-0.7-1.2-0.5-1.8l5.8-24.5c0.2-0.7-0.1-1.5-0.7-2l-5.4-3.9c-0.8-0.6-1.1-1.8-0.5-2.6c2.6-3.7,10.1-8.8,16.3-2.6
			L54.4,30.7z"/>
		<path class="st4" d="M32.4,74.2l10.4-2.8c0.1,0,0.2-0.1,0.3-0.2l7-8.2c0.1-0.1,0.1-0.2,0.1-0.2L56.4,36c0.3-1.4-1-2.6-2.3-2.2
			l-4.9,1.5c-1.4,0.4-2.5,1.6-2.9,3.1L40.8,62c0,0.1,0,0.1-0.1,0.2L32.4,74.2z"/>
		<path class="st3" d="M43.8,33.5c1.9,1.8,2.7,4.5,2.1,7l-5,21.5c0,0.1,0,0.1-0.1,0.2l-8.4,12l-0.9-0.6c-0.1-0.1-0.2-0.3-0.2-0.5
			l-0.2-15.3c0-0.1,0-0.1,0-0.2L36.8,35c0.8-2.9,4.4-3.9,6.6-1.9L43.8,33.5z"/>
		<g>
			<path class="st6" d="M45.3,51.9l-1.2,5c-0.1,0.5-0.1,0.9,0.1,1.2l0,0l43.1,40.7c0.2,0.2,0.6,0.2,0.9-0.1l7.3-8.9
				c0.2-0.2,0.2-0.6-0.1-0.8l-43-40.6l-0.1,0.1c-0.4-0.5-1.1-0.6-2-0.4l-1.6,0.5C47.1,49.1,45.6,50.5,45.3,51.9z"/>
			<path class="st7" d="M72.5,77.4l-1.2,5.1c-0.1,0.5-0.1,0.9,0.1,1.2l0.3,0.3l0,0l16.5,15.6c0.2,0.2,0.6,0.2,0.9-0.1l7.3-8.9
				c0.2-0.2,0.1-0.8-0.2-1L79.5,74l0,0l-0.2-0.2c-0.4-0.3-1-0.4-1.8-0.1l-1.6,0.5C74.3,74.6,72.8,76.1,72.5,77.4z"/>
			<path class="st8" d="M96.6,91l-1.2,5.2c-0.3,1.4-1.8,2.8-3.5,3.4l-1.6,0.5c-1.5,0.5-2.5-0.3-2.2-1.6l1.2-5.2
				c0.3-1.4,1.8-2.8,3.5-3.4l1.6-0.5C95.9,89,96.9,89.7,96.6,91z"/>
		</g>
	</g>
</g>
</svg>
