<?xml version="1.0" encoding="utf-8"?>
<!-- Generator: Adobe Illustrator 24.1.1, SVG Export Plug-In . SVG Version: 6.00 Build 0)  -->
<svg version="1.1" id="point_1_" xmlns="http://www.w3.org/2000/svg" xmlns:xlink="http://www.w3.org/1999/xlink" x="0px" y="0px"
	 viewBox="0 0 128 128" style="enable-background:new 0 0 128 128;" xml:space="preserve">
<style type="text/css">
	.st0{fill:#FFC403;}
	.st1{fill:#F4BFBA;}
</style>
<g>
	<path class="st0" d="M104.7,99.7c2.7,3.3,3,7.4,0.7,11.2c-2.5,4-6.2,6.5-10.4,8.3c-8,3.3-16.2,5.5-25,3.7
		c-6.9-1.4-11.3-5.6-11.9-11C75.6,115.6,91.9,114.8,104.7,99.7z"/>
	<path class="st1" d="M76.4,46.3c0.8-1.5,1.2-2.1,1.5-2.8c2.5-5.5,8.2-6.6,12.1-2c1.7,2,2.4,4.9,3.4,7.4c0.4,0.9,0.4,2,0.8,3.4
		c2.6-1.9,4.7-3.9,7.8-2c3.4,2.1,5.2,5.1,5.7,8.9c1.6,13-0.3,25.6-5.4,37.7c-2,4.8-5.5,8.1-10.3,10c-9,3.4-18.5,6.2-27.9,3.4
		c-11-3.2-20.8-9.3-28-18.5c-5-6.4-6.1-14-4.8-22c0.2-1.4,1.1-3,2.1-3.8c1.2-0.9,3.1-1.4,4.6-1.4c0.5,0,1.3,2.3,1.3,3.5
		c0.1,2.6-0.2,5.3-0.2,8c0,0.7,0.4,1.4,0.6,2.1c0.6-0.5,1.7-0.9,1.8-1.4c0.2-3.2,0.8-6.5,0.2-9.5C39.3,55.8,34,45.2,28.4,34.6
		c-3-5.7-5.2-11.9-7.6-17.9c-0.5-1.3-0.4-3-0.4-4.4c0-6.3,6-9.9,11.1-6.4c3.4,2.4,6.5,5.7,8.7,9.2c4.7,7.6,8.7,15.7,13,23.6
		c0.5,0.9,1,1.9,1.6,2.8c0.3,0.4,1,0.5,1.6,0.8c0.2-0.5,0.7-1.1,0.6-1.6c-0.5-5.8,4.3-9.1,10.1-6.8c3.9,1.5,6,4.6,7.5,8.3
		C74.9,43.4,75.5,44.4,76.4,46.3z"/>
	<path d="M76.6,40c7.6-7.6,17-2.3,19.4,7.7c7.3-0.9,11.2,1.6,13.6,8.6c2.3,6.7,1.7,13.6,0.6,20.4c-0.9,6-2.8,11.8-4.1,17.8
		c-0.2,1,0.1,2.4,0.7,3.4c4.1,6.8,3.5,12.1-2,17.7c-8.5,8.6-28.1,13-39.1,8.6c-5.9-2.4-9.8-6.4-10.6-13c-0.1-1.1-1.4-2.2-2.4-2.9
		c-5.2-3.8-10.8-7.1-15.5-11.3C30.1,90.7,28,81.9,28,72.8c0-6.5,2.4-8.9,10.1-11.2c-2.9-6.4-5.6-12.7-8.5-19
		C26,34.7,22.2,26.9,18.8,19c-1-2.3-1.2-5.1-1-7.6C18.2,3.5,26.6-0.7,33,3.9c3.5,2.5,6.6,5.9,8.9,9.5c4.1,6.4,7.5,13.2,11.2,19.9
		c0.4,0.7,0.8,1.4,1.3,2.2C60.1,28.4,69.9,28.7,76.6,40z M76.4,46.3c-0.9-1.9-1.5-3-1.9-4.1c-1.5-3.7-3.6-6.8-7.5-8.3
		c-5.8-2.3-10.6,1-10.1,6.8c0,0.5-0.4,1.1-0.6,1.6c-0.5-0.2-1.2-0.4-1.6-0.8c-0.7-0.8-1.1-1.8-1.6-2.8c-4.3-7.9-8.3-16-13-23.6
		c-2.2-3.5-5.3-6.9-8.7-9.2C26.3,2.4,20.3,6,20.3,12.3c0,1.5-0.1,3.1,0.4,4.4c2.4,6,4.6,12.2,7.6,17.9c5.7,10.6,11,21.2,13.5,32.9
		c0.6,3,0,6.3-0.2,9.5c0,0.5-1.1,1-1.8,1.4c-0.2-0.7-0.6-1.4-0.6-2.1c0-2.7,0.4-5.3,0.2-8c-0.1-1.3-0.8-3.5-1.3-3.5
		c-1.6,0-3.4,0.5-4.6,1.4c-1.1,0.8-1.9,2.4-2.1,3.8c-1.2,7.9-0.2,15.6,4.8,22c7.2,9.2,17,15.3,28,18.5c9.4,2.8,18.9,0,27.9-3.4
		c4.8-1.8,8.3-5.1,10.3-10c5.1-12.1,7-24.7,5.4-37.7c-0.5-3.8-2.3-6.7-5.7-8.9c-3.1-2-5.2,0-7.8,2C93.9,51,93.8,50,93.5,49
		c-1-2.5-1.7-5.4-3.4-7.4c-3.9-4.6-9.6-3.5-12.1,2C77.6,44.2,77.2,44.8,76.4,46.3z M104.7,99.7C92,114.8,75.6,115.6,58,111.9
		c0.6,5.4,5,9.5,11.9,11c8.8,1.8,17-0.4,25-3.7c4.2-1.7,7.9-4.3,10.4-8.3C107.7,107.1,107.4,103,104.7,99.7z"/>
</g>
</svg>
