<?xml version="1.0" encoding="utf-8"?>
<!-- Generator: Adobe Illustrator 24.1.1, SVG Export Plug-In . SVG Version: 6.00 Build 0)  -->
<svg version="1.1" id="click_1_" xmlns="http://www.w3.org/2000/svg" xmlns:xlink="http://www.w3.org/1999/xlink" x="0px" y="0px"
	 viewBox="0 0 128 128" style="enable-background:new 0 0 128 128;" xml:space="preserve">
<style type="text/css">
	.st0{fill:#F4BFBA;}
	.st1{fill:#FFC403;}
</style>
<g>
	<path class="st0" d="M94.4,52.7c5.3-3.5,9.7-2.3,12.2,3.3c0.7,1.5,1.2,3.3,1.3,4.9c1,12.8-0.3,25.3-5.9,37
		c-1.2,2.5-2.9,5.3-5.2,6.7c-10,6.3-21.2,9.1-32.6,6.3c-11-2.7-20.4-9.2-27.7-17.9c-5.4-6.5-6.6-14.4-5.2-22.7
		c0.2-1.2,0.7-2.7,1.6-3.4c1.4-1,3.2-1.7,4.9-1.7c0.5,0,1.6,2.3,1.7,3.6c0.2,2.6-0.1,5.3-0.2,8c0,0.7,0.4,1.4,0.6,2.1
		c0.6-0.5,1.7-1,1.7-1.6c0-4.3,0.7-9-0.5-12.9c-2.4-7.7-5.9-15.1-9.1-22.6c-0.5-1.1-1.9-1.9-2.9-2.8c0,1.2,0,2.5,0,3.8
		c-5.5,2.9-12.1,0.7-13.3-5.3c-0.5-2.4,0.7-5.4,2-7.6c2-3.4,4.7-6.4,7.3-9.4c5.1-6.2,13.4-5.7,18.5,1.3c2.7,3.8,4.6,8.2,6.9,12.3
		c1.4,2.5,2.7,5.1,4.2,7.6c0.3,0.5,1.1,0.7,1.7,1c0.2-0.6,0.6-1.3,0.5-1.9c-0.7-3.8,1.3-6.6,5.2-7c5.1-0.6,9.1,2,11.7,7.7
		c0.5,1,0.7,2,1.2,3c0.3,0.5,0.8,0.9,1.1,1.4c0.5-0.5,1.2-0.9,1.4-1.4c1.1-3,3-5,6.3-5.1c3.7,0,6.4,1.9,7.8,5.2
		C93,47.1,93.6,49.8,94.4,52.7z"/>
	<path class="st1" d="M57.9,111.8c19.4,5.7,36.9,1.1,46.4-11.9c3.7,4.2,3.5,9.7-0.6,14c-5,5.3-11.6,7.3-18.5,8.9
		c-6.3,1.5-12.4,1.9-18.6-0.5c-3.9-1.5-6.8-3.9-8.3-7.9C58.1,113.6,58,112.7,57.9,111.8z"/>
	<path d="M95.8,48.2c8.7-1,14.1,3.9,14.9,13.4c0.8,10.9-0.5,21.6-4.2,31.9c-0.7,2.1-0.8,3.6,0.5,5.5c3.9,5.8,3.4,11.9-1.8,16.6
		c-11.1,10-24.4,12.8-38.6,9.3c-6.5-1.6-10.8-6.2-11.6-13.5c-0.1-1-1.5-2-2.6-2.8c-4.9-3.6-10.2-6.7-14.8-10.7
		c-7.7-6.8-10-16-9.6-25.9c0.2-5.4,3.2-8.2,10-9.7c-2.3-5.6-4.5-11.1-6.8-16.8c-1.7,0.4-3.3,0.8-4.8,1c-4.4,0.5-8.5-0.1-11.2-3.9
		c-2.9-4.1-3.2-8.7-0.3-13c2.6-3.9,5.5-7.7,8.7-11.1c6.8-7.1,16.3-6.3,22,1.9c2.7,3.8,4.6,8.2,6.9,12.3c0.6,1,1.1,2,1.9,3.3
		c3.3-3.9,7-5.7,12-4.2c4.7,1.4,7.6,4.5,9.9,9c3.4-3.6,7.3-5,11.8-3C92.7,39.7,94.8,43.5,95.8,48.2z M94.4,52.7
		c-0.9-2.9-1.5-5.6-2.5-8.1c-1.4-3.3-4.2-5.2-7.8-5.2c-3.3,0-5.2,2.1-6.3,5.1c-0.2,0.6-0.9,1-1.4,1.4c-0.4-0.5-0.9-0.9-1.1-1.4
		c-0.5-1-0.7-2-1.2-3c-2.7-5.6-6.7-8.2-11.7-7.7c-3.9,0.4-5.9,3.2-5.2,7c0.1,0.6-0.3,1.3-0.5,1.9c-0.6-0.3-1.4-0.5-1.7-1
		c-1.5-2.5-2.8-5.1-4.2-7.6c-2.3-4.1-4.1-8.5-6.9-12.3c-5.1-7.1-13.4-7.5-18.5-1.3c-2.5,3-5.3,6-7.3,9.4c-1.3,2.2-2.4,5.3-2,7.6
		c1.2,5.9,7.8,8.2,13.3,5.3c0-1.3,0-2.6,0-3.8c1,0.9,2.4,1.7,2.9,2.8c3.2,7.5,6.7,14.9,9.1,22.6c1.2,4,0.5,8.6,0.5,12.9
		c0,0.5-1.1,1-1.7,1.6c-0.2-0.7-0.6-1.4-0.6-2.1c0-2.7,0.3-5.3,0.2-8c-0.1-1.3-1.1-3.6-1.7-3.6c-1.7,0.1-3.5,0.8-4.9,1.7
		c-0.9,0.6-1.4,2.2-1.6,3.4c-1.4,8.3-0.2,16.3,5.2,22.7c7.3,8.7,16.7,15.2,27.7,17.9c11.4,2.8,22.6,0,32.6-6.3
		c2.3-1.4,4-4.2,5.2-6.7c5.5-11.7,6.9-24.2,5.9-37c-0.1-1.7-0.7-3.4-1.3-4.9C104.2,50.4,99.7,49.2,94.4,52.7z M57.9,111.8
		c0.2,0.9,0.2,1.8,0.5,2.5c1.4,4,4.4,6.4,8.3,7.9c6.1,2.4,12.3,2,18.6,0.5c6.8-1.6,13.4-3.7,18.5-8.9c4.1-4.3,4.3-9.7,0.6-14
		C94.8,112.9,77.2,117.5,57.9,111.8z"/>
</g>
</svg>
