<svg xmlns="http://www.w3.org/2000/svg" width="61" height="61">
    <path fill="#FFF" fill-rule="evenodd" d="M60.044 42.506c-.151 3.189-.655 5.367-1.392 7.286-.754 1.976-1.796 3.654-3.456 5.319-1.676 1.661-3.336 2.688-5.317 3.455-1.895.739-4.09 1.241-7.277 1.397-3.202.154-4.226.181-12.375.181-8.151 0-9.173-.027-12.376-.181-3.187-.156-5.367-.658-7.28-1.397-1.979-.752-3.656-1.794-5.314-3.455-1.662-1.676-2.686-3.343-3.455-5.319-.739-1.901-1.243-4.097-1.393-7.286C.258 39.297.224 38.274.224 30.11c0-8.158.034-9.179.185-12.386.15-3.195.654-5.373 1.393-7.287.754-1.984 1.793-3.658 3.455-5.323 1.675-1.661 3.335-2.687 5.314-3.456 1.897-.74 4.093-1.246 7.28-1.395C21.054.114 22.076.078 30.227.078c8.149 0 9.173.036 12.375.185 3.187.149 5.367.655 7.277 1.395 1.981.752 3.657 1.795 5.317 3.456 1.66 1.681 2.685 3.339 3.456 5.323.737 1.896 1.241 4.092 1.392 7.287.15 3.207.184 4.228.184 12.386 0 8.164-.034 9.187-.184 12.396zm-5.383-24.533c-.136-2.914-.622-4.514-1.041-5.572-.553-1.408-1.191-2.398-2.246-3.464-1.057-1.053-2.048-1.707-3.454-2.241-1.057-.423-2.65-.904-5.569-1.042-3.169-.137-4.109-.167-12.124-.167-8.017 0-8.957.03-12.126.167-2.918.138-4.511.619-5.567 1.042-1.409.558-2.399 1.188-3.455 2.241-1.057 1.066-1.712 2.056-2.247 3.464-.419 1.058-.905 2.658-1.041 5.572-.133 3.18-.167 4.115-.167 12.137 0 8.029.017 8.97.167 12.144.136 2.922.622 4.512 1.041 5.568.553 1.417 1.19 2.403 2.247 3.46 1.056 1.061 2.046 1.717 3.455 2.253 1.056.417 2.649.905 5.567 1.035 3.169.137 4.109.17 12.126.17 8.015 0 8.955-.016 12.124-.17 2.919-.13 4.512-.618 5.569-1.035 1.406-.556 2.397-1.192 3.454-2.253 1.055-1.057 1.71-2.043 2.246-3.46.419-1.056.905-2.646 1.041-5.568.133-3.174.166-4.115.166-12.144 0-8.022-.015-8.957-.166-12.137zm-8.42-.284c-1.991 0-3.603-1.619-3.603-3.607 0-1.993 1.612-3.609 3.603-3.609s3.606 1.616 3.606 3.609c0 1.988-1.615 3.607-3.606 3.607zM30.227 45.54c-8.519 0-15.413-6.896-15.413-15.43 0-8.525 6.91-15.423 15.413-15.423s15.411 6.898 15.411 15.423c0 8.534-6.892 15.43-15.411 15.43zm0-25.435c-5.519 0-9.997 4.483-9.997 10.005 0 5.528 4.478 10.007 9.997 10.007 5.517 0 9.994-4.479 9.994-10.007 0-5.522-4.477-10.005-9.994-10.005z"/>
</svg>
