<svg xmlns="http://www.w3.org/2000/svg" width="592" height="127">
    <path fill="#FFF" fill-rule="evenodd" d="M591.037.216L548.364 73.72h-.002l-.001.003h-.002l-38.994 21.81v-.002l-35.722-73.492L506.967.215h84.073l-.003.001zm-42.65 69.402L585.532 5.64l-32.003 17.91-15.786 27.17 10.644 18.898zm-2.807 3.321l-10.209-18.123-20.5 35.297 30.709-17.174zm-10.186-22.23l-.002-.005.002-.004-16.137-28.661 16.135 28.665-25.269 43.522 25.271-43.517zm-25.868 40.488l23.517-40.506-14.976-26.608h-41.162l32.621 67.114zm-3.265-88.076l-25.769 16.88h35.272l-9.503-16.88zm4.197-.864l9.991 17.741h31.069l31.689-17.741h-72.749zm-35.16 122.918l-7.958-17.528h-32.018l-7.962 17.528h-9.346l33.315-72.902 33.318 72.902h-9.349zM451.329 71.38l-12.401 28.292h24.802L451.329 71.38zm-52.758 7.607h-.183l-20.913 47.672-20.917-47.672h-.183l-8.147 46.188h-8.975l14.251-72.9 23.971 55.09 23.967-55.09 14.252 72.9h-8.98l-8.143-46.188zm-93.975 47.672c-19.528 0-35.26-16.879-35.26-36.264 0-20.125 16.103-36.636 36.185-36.636 10.829 0 21.566 4.914 28.411 13.543l-6.108 5.839c-4.995-6.862-13.415-11.406-21.931-11.406-15.642 0-27.855 12.706-27.855 28.378 0 14.653 12.031 28.568 27.115 28.568 10.825 0 22.486-9.369 22.857-20.773h-18.046v-7.977h27.671v2.782c0 19.196-13.509 33.946-33.039 33.946zm-51.71-71.408h8.7v69.924h-8.7V55.251zm-24.949 28.558c9.899 3.894 17.304 9.37 17.304 21.053 0 12.703-9.81 21.799-22.3 21.799-11.291 0-20.082-8.349-21.563-19.57l8.791-1.859c-.092 7.702 6.016 13.263 13.512 13.263 7.492 0 12.863-6.305 12.863-13.633 0-7.512-6.015-10.757-12.032-13.26l-4.812-2.041c-7.955-3.436-15.176-7.978-15.176-17.718 0-11.314 9.992-18.085 20.547-18.085 7.769 0 14.156 3.804 17.947 10.574l-6.939 4.173c-2.588-4.356-5.919-6.585-11.198-6.585-5.549 0-11.657 3.8-11.657 9.923 0 5.474 5.366 8.349 9.717 10.02l4.996 1.946zm-35.505 41.366l-7.96-17.528h-32.018l-7.962 17.528h-9.346l33.316-72.902 33.314 72.902h-9.344zm-23.97-53.795l-12.399 28.292h24.801L168.462 71.38zm-50.528 11.502h24.246v7.975h-24.246v34.315h-8.698v-69.93h33.776v7.974h-25.078v19.666zM72.313 55.243h8.697v61.958h21.193v7.974h-29.89V55.243zM50.28 107.647H18.261l-7.962 17.528H.956l33.315-72.902 33.314 72.902h-9.346l-7.959-17.528zM34.271 71.38l-12.4 28.292H46.67L34.271 71.38z"/>
</svg>
