<svg xmlns="http://www.w3.org/2000/svg" width="176" height="95">
    <path fill="#3D6D4F" fill-rule="evenodd" stroke="#000" stroke-width="6" d="M158.925 77.447c-5.995.044-11.803-1.583-17.598-3.004-1.406 1.372-3.094 2.631-4.79 3.517-4.165 2.198-8.901 3.158-13.544 3.797-8.077 1.117-16.312.581-24.359-.547-15.791-2.203-31.172-8.389-44.682-16.309-4.995-2.949-9.79-6.333-15.079-8.776-2.584-1.201-5.271-2.15-8.073-2.719-.81-.158-3.681-.918-5.26-1.793-4.675.931-8.737 2.339-14.027.586-4.512-1.504-1.037-6.411.461-9.031 1.606-2.784 3.701-5.268 5.986-7.518 4.453-4.354 9.699-7.867 15.068-11.001 8.644-5.013 19.011-8.244 29.198-9.533 2.652-1.401 5.118-3.438 7.115-5.147 1.297-1.106 3.54.247 2.856 1.933-.166.431-.321.783-.466 1.103 5.63-.554 11.037-1.74 16.539-3.246 1.666-.459 2.854 1.646 1.96 2.956-.811 1.221-1.622 2.292-2.472 3.28.43.08.85.189 1.275.283 7.175-.566 14.675-2.267 21.409-3.269 1.446-.214 2.661 1.075 2.202 2.5-.984 2.998-3.199 4.749-5.864 5.793 7.303 1.665 15.05 1.799 22.411 2.558 1.747.192 2.317 2.17 1.146 3.352-1.795 1.812-4.002 2.708-6.329 3.363 5.99 2.227 12.069 4.148 18.393 5.311 1.533.27 2.676 2.259 1.171 3.428-2.281 1.747-4.369 2.348-6.514 2.424 5.942 3.154 11.986 6.106 17.641 9.649 1.405.883.943 3.3-.711 3.527-2.907.422-5.493-.039-8.072-.615.867 1.02 1.78 2.105 2.832 2.935 1.972 1.547 4.213 2.615 6.489 3.676.711.344 1.414.566 2.187.779.733.183 1.491.442 2.11.905.8.626 1.292 1.753.843 2.66-.655 1.258-2.453 1.167-3.834.897-2.742-.547-5.504-1.085-8.245-1.632 1.217.987 3.847 3.229 5.223 4.052 2.279 1.349 4.681 2.487 7.186 3.375.758.259 1.516.518 2.171.976.01.02.04.03.05.051 3.071 2.292-2.052 4.466-4.003 4.474zM39.228 25.534c-7.108 3.214-13.523 7.608-19.18 12.949-2.116 2.005-6.994 5.727-6.107 9.143.671 2.617 4.208 1.501 6.126 1.196 2.172-.354 4.335-.828 6.493-1.237 1.873-.371 3.543-.693 5.498-.616 4.529.181 8.657 2.11 12.509 4.298 7.19 4.101 14.538 8.087 22.061 11.662-1.519-1.243-2.926-2.614-4.164-4.13-8.938-10.906-10.022-26.252-2.239-38.088.21-.315.38-.56.544-.791-7.467.82-14.82 2.588-21.541 5.614zm76.206 6.712c-.886-.622-1.813-1.224-2.781-1.807C101.704 23.93 89.25 20.307 76.517 19.55c-3.449-.216-6.971-.222-10.504-.046-6.435 8.424-8.349 16.219-5.072 26.592 2.987 9.399 9.359 15.913 18.797 19.147 13.918 4.779 29.453-1.2 34.781-15.151 2.185-5.734 2.424-12.014.915-17.846zm21.404 24.495c-5.369-8.192-10.476-15.721-17.735-21.73 1.86 12.515-2.978 25.978-15.44 32.331-5.717 2.914-12.415 3.861-18.94 3.084 10.374 3.419 21.396 5.056 32.239 2.947 4.051-.789 8.125-1.891 12.063-3.09 2.058-.611 4.669-1.302 6.554-2.494 5.255-3.342 4.199-6.562 1.259-11.048zM76.139 44.816c-.188-1.024-.223-2.146-.137-3.279-.199-1.582-.078-3.256.495-5.013 1.73-5.25 7.48-9.584 13.214-8.234 8.329 1.98 10.33 14.476 5.306 20.387-5.634 6.645-17.192 5.43-18.878-3.861z"/>
</svg>
