<svg xmlns="http://www.w3.org/2000/svg" width="277" height="171">
    <path fill="#008FD3" fill-rule="evenodd" stroke="#000" stroke-width="6" d="M262.385 102.478c-2.367 2.286-5.942 3.119-8.501 4.956-2.559 1.838-23.885 8.195-24.699 8.568-3.406 1.562-7.065 2.733-10.562 4.116-3.866 1.531-7.719 3.094-11.57 4.631-3.225 1.294-6.447 2.563-9.688 3.78-7.095 2.684-14.359 4.924-21.526 7.388l-.083.03-.041-.113-.441.189c-4.836 2.114-7.665 4.587-9.602 9.664-.942 2.448-1.213 5.112-2.246 7.518-.967 2.262-2.422 4.49-4.867 5.282-4.397 1.434-8.323-2.067-11.156-4.935-5.744-5.806-9.639-9.545-18.133-9.878-7.194-.284-19.015 1.469-23.41-6.029-1.876-3.199-1.204-6.528.394-9.713 3.303-6.635 9.435-10.529 8.025-18.964-.812-4.819-3.641-9.845-4.24-14.376-.174-.033-.361-.104-.538-.233-2.198-1.583-4.499-2.978-7.019-4-2.145-.882-4.118-.942-6.221-1.3-1.5 1.371-3.355 2.421-5.037 3.266-2.029 1.016-4.181 1.786-6.237 2.758-5.494 2.582-7.606 5.891-8.492 11.658-.905 5.979-.406 19.964-10.046 19.212-4.47-.348-7.579-4.936-10.282-7.982-2.108-2.393-4.135-4.858-6.205-7.264-4.338-5.03-7.7-6.821-14.424-6.793-5.45.035-22.006 1.363-23.433-6.181-.528-2.813 2.128-5.32 3.767-7.162 1.782-1.98 3.676-3.626 4.776-6.175 2.712-6.277-2.266-12.785-5.102-18.271-1.728-3.352-4.456-6.787-5.526-10.4-.871-2.956-.266-6.616 1.658-9.177 1.17-1.554 2.583-2.079 4.127-2.111 1.307-.505 2.432-.934 4.156-1.591 3.599-1.361 7.175-2.785 10.747-4.219 7.136-2.889 14.226-5.868 21.359-8.767 1.417-.586 2.848-1.166 4.273-1.731 7.413-2.968 14.975-5.602 22.252-8.899 3.929-1.767 7.656-3.944 11.54-5.802 1.924-.927 3.886-1.786 5.915-2.47 1.014-.341 2.044-.642 3.087-.876 3.185-.712 4.544 1.666 1.605 4.495-2.366 2.285-5.941 3.118-8.5 4.956-2.56 1.837-23.886 8.194-24.7 8.568-3.405 1.561-7.065 2.732-10.562 4.115-3.865 1.531-7.719 3.095-11.57 4.632-3.224 1.293-6.446 2.562-9.688 3.779-4.675 1.77-9.424 3.344-14.17 4.918 5.331 1.461 10.429 3.27 15.649 5.157 5.001 1.791 9.821 2.269 14.458-.913 2.243-1.548 4.052-3.484 6.401-4.92 2.731-1.684 5.774-4.074 9.103-4.222 4.166-.186 7.866 6.361 8.39 9.896.666 4.625-.305 9.896 2.968 13.788 1.581 1.897 3.563 3.128 5.65 4.407 3.789 2.335 10.568 5.389 13.539 9.866 1.767-.176 4.866.515 5.193.556 4.771.551 8.137 3.084 11.592 6.24.389-.261.798-.498 1.251-.729.126-.068.273-.079.402-.051 3.43-1.424 7.83-1.093 12.13.202 2.364.715 4.805 1.874 7.27 2.163 5.361.602 9.571-2.336 13.933-4.89 3.388-1.979 7.728-4.621 11.827-3.641 9.623 2.321 4.056 16.512 8.168 22.714 4.823 7.287 19.904 10.034 20.489 20.152.165 2.875-.584 5.108-1.89 6.915 1.428-.566 2.856-1.134 4.282-1.706 7.136-2.89 14.226-5.868 21.358-8.768 1.417-.586 2.849-1.165 4.274-1.73 7.412-2.968 14.975-5.603 22.252-8.899 3.929-1.767 7.656-3.945 11.54-5.802 1.924-.928 3.886-1.787 5.915-2.471 1.014-.341 2.044-.642 3.087-.876 3.185-.711 4.543 1.667 1.605 4.495zm-76.129 15.239c-1.544-1.943-4.462-3.434-6.409-4.947-7.26-5.593-14.402-8.579-15.052-18.554-.14-2.254.481-4.961-.092-7.164-2.485-9.72-8.972-5.501-13.705-2.758-3.621 2.109-7.149 4.732-11.436 5.35-4.44.643-8.98-1.361-13.199-2.491-1.974-.535-4.054-.976-6.116-.842-2.541.181-4.395 2.759-6.94 1.11-2.35-1.527-4.515-3.694-7.15-4.707-3.05-1.173-6.488-1.061-9.446-2.364-2.879-1.268-5.051-3.659-7.667-5.325-3.791-2.397-7.987-4.258-11.3-7.35-2.411-2.248-4.007-4.655-4.478-7.93-.784-5.53-.387-13.068-5.965-16.575-9.565.826-14.841 12.82-25.512 11.403-5.062-.67-9.815-3.371-14.672-4.86-2.648-.814-6.407-2.599-9.196-2.563-3.914.05-6.219 3.742-5.447 7.661.522 2.62 2.608 4.514 3.904 6.719 1.708 2.916 2.991 6.172 4.51 9.191 1.322 2.628 3.321 5.427 3.616 8.398.672 6.692-4.98 9.753-7.985 14.619-2.712 4.403.6 5.823 4.931 6.644 2.446.468 5.05.695 7.531.849 4.366.3 9.097-.664 13.385.419 3.92.992 6.509 3.639 9.082 6.593 1.816 2.068 3.571 4.202 5.394 6.29 1.684 1.913 3.993 5.879 6.363 6.817 7.325 2.896 9.173-2.804 9.932-8.504.285-2.184.282-4.391.567-6.575.484-3.638 1.354-7.395 4.029-10.082 2.03-2.04 5.073-3.17 7.633-4.381 3.639-1.737 7.293-4.839 11.51-4.828 2.796.016 5.627.742 8.188 1.847 2.594 1.135 6.678 3.274 8.025 5.915.762 1.486.835 3.237 1.267 4.823.45 1.721.994 3.406 1.481 5.112 1.123 4.08 1.872 8.491.263 12.553-2.043 5.169-8.179 9.345-8.859 14.94-1.207 9.903 13.317 8.848 18.794 8.859 9.513.001 15.438 2.076 21.899 9.16 3.349 3.658 10.133 9.567 13.428 2.062 1.035-2.342 1.294-4.98 2.199-7.382 1.463-3.846 3.561-6.783 7.051-8.984 1.365-.863 2.839-1.529 4.342-2.139l-.138-.379c.114-.043.234-.099.348-.141 2.599-1.014 3.825-1.481 6.443-2.478.527-.2 1.052-.409 1.579-.611 4.125-2.43 7.801-6.414 3.07-12.42zm-19.149 14.847c-2.514 1.28-4.519 2.244-6.102 4.68-.702 1.077-1.074 2.323-1.53 3.515-.924 2.409-2.879 3.98-5.509 3.741-3.298-.296-4.849-3.313-7.148-5.258-1.622-1.364-3.315-2.745-5.219-3.704-2.95-1.489-5.921-1.98-9.243-2.018-3.718-.032-16.546 3.728-16.07-3.914.159-2.558 4.358-6.258 5.743-8.469 1.976-3.153 3.826-6.677 3.703-10.5-.141-4.808-5.773-8.845-5.563-13.9.264-6.638 12.514.6 15.646 1.354 3.03.739 5.918.624 8.791-.616 3.391-1.474 8.794-8.903 11.987-3.236 1.467 2.584.068 7.247 1.043 10.25 2.347 7.293 10.674 7.171 16.031 11.427 8.217 6.555-.122 13.352-6.56 16.648zM71.121 94.615c-.978 2.967-.608 6.699-1.198 9.782-.778 4.068-2.323 10.444-7.722 9.005-7.915-2.099-6.634-13.969-12.01-18.424-5.139-4.25-12.319-1.975-18.125-1.24-2.007.255-4.978.615-6.551-1.026-1.757-1.821-.962-4.053.116-6.044 1.533-2.805 2.786-3.471 3.551-6.899 1.115-4.968-1.575-7.157-4.813-10.512-3.238-3.356-9.646-10.587-5.553-15.455 1.994-2.371 8.344.658 10.758 1.365 2.944.856 5.934 1.544 8.812 2.575 6.25 2.258 9.715 3.009 15.663-.214 2.731-1.479 5.959-5.123 9.13-5.439 2.386-.221 3.544 1.056 4.528 3.086 2.382 4.866.963 9.946 5.348 14.194 3.251 3.157 16.841 7.799 11.388 14.622-4.067 5.084-10.815 3.053-13.322 10.624z"/>
</svg>
