<?xml version="1.0" encoding="utf-8"?>
<!-- Generator: Adobe Illustrator 24.1.0, SVG Export Plug-In . SVG Version: 6.00 Build 0)  -->
<svg version="1.1" id="Livello_1" xmlns="http://www.w3.org/2000/svg" xmlns:xlink="http://www.w3.org/1999/xlink" x="0px" y="0px"
	 viewBox="0 0 128 128" style="enable-background:new 0 0 128 128;" xml:space="preserve">
<style type="text/css">
	.st0{fill:#2A2B2B;}
	.st1{fill:#494E59;}
	.st2{fill:#252931;}
	.st3{fill:#42464F;}
	.st4{fill:#585E6A;}
	.st5{fill:#333535;}
	.st6{fill:#E42824;}
</style>
<path d="M92.26,16.62c-0.91,0.29-1.69,0.78-2.29,1.45L27.39,87.56c0,0-0.03,0.04-0.04,0.04l-0.03,0.03
	c-0.05,0.06-0.1,0.12-0.14,0.18c-0.76,0.95-1.15,2.16-1.15,3.52c0,0.27,0.02,0.54,0.05,0.81c-0.12,0.27-0.21,0.55-0.27,0.84
	c-0.02,0.1-0.03,0.17-0.05,0.24l-0.73,3.73l-0.01,0.01c-0.02,0.02-0.04,0.05-0.06,0.07c-0.01,0.02-0.03,0.03-0.04,0.05
	c-0.02,0.02-0.03,0.04-0.05,0.05c-0.02,0.02-0.04,0.04-0.06,0.07l-0.04,0.04l-0.02,0.02c-0.02,0.02-0.04,0.04-0.06,0.06
	c-0.01,0.02-0.03,0.03-0.04,0.05c-0.02,0.03-0.05,0.05-0.07,0.08l-0.04,0.04c0,0-0.02,0.02-0.03,0.04
	c-0.01,0.02-0.03,0.03-0.04,0.05c-0.02,0.02-0.03,0.03-0.05,0.05c-0.02,0.02-0.04,0.04-0.06,0.06l-0.05,0.05l0,0l-0.01,0.01
	c-0.02,0.02-0.04,0.05-0.06,0.07c-0.01,0.02-0.03,0.03-0.04,0.05c-0.01,0.01-0.03,0.03-0.04,0.04c-0.02,0.02-0.04,0.04-0.06,0.06
	c-0.01,0.01-0.03,0.03-0.04,0.04c-0.01,0.02-0.03,0.03-0.04,0.05c-0.02,0.02-0.03,0.03-0.04,0.05c-0.01,0.01-0.02,0.03-0.04,0.04
	c-0.02,0.02-0.03,0.04-0.05,0.05c-0.02,0.02-0.04,0.04-0.06,0.06l-0.04,0.04c0,0-0.02,0.02-0.04,0.04
	c-0.02,0.02-0.03,0.03-0.05,0.05c-0.02,0.02-0.03,0.03-0.05,0.05c-0.02,0.02-0.04,0.05-0.06,0.07l-0.04,0.05
	c0,0-0.01,0.02-0.03,0.04c-0.01,0.01-0.02,0.03-0.04,0.04c-0.02,0.02-0.03,0.03-0.05,0.05c-0.02,0.03-0.05,0.05-0.07,0.08l0,0
	c-0.02,0.02-0.05,0.05-0.07,0.07c-0.01,0.02-0.03,0.03-0.04,0.05c-0.01,0.02-0.03,0.03-0.04,0.05c-0.02,0.02-0.03,0.03-0.05,0.05
	c-0.02,0.02-0.04,0.04-0.06,0.06l-0.01,0.01c-0.02,0.02-0.04,0.04-0.06,0.06c-0.02,0.02-0.03,0.03-0.05,0.05
	c-0.01,0.02-0.03,0.03-0.04,0.05c-0.02,0.02-0.03,0.03-0.05,0.05c-0.01,0.02-0.03,0.03-0.04,0.05c-0.01,0.02-0.03,0.03-0.04,0.05
	c-0.02,0.02-0.03,0.03-0.05,0.05c-0.02,0.02-0.04,0.04-0.06,0.07l-0.01,0.01l0,0l-0.07,0.08l0,0l-0.05,0.06l0,0l0,0
	c-0.02,0.03-0.05,0.05-0.07,0.08c-0.01,0.02-0.03,0.03-0.04,0.05c-0.02,0.02-0.03,0.04-0.05,0.05c-0.02,0.02-0.04,0.04-0.06,0.06
	c-0.02,0.03-0.05,0.05-0.07,0.08c-0.01,0.02-0.03,0.03-0.04,0.05c-0.02,0.02-0.04,0.05-0.06,0.07l-0.04,0.05l-0.03,0.03
	c-0.01,0.01-0.03,0.03-0.05,0.05c-0.01,0.01-0.03,0.03-0.04,0.04c-0.02,0.02-0.04,0.05-0.06,0.07l-0.02,0.03l-0.06,0.06l0,0
	l-0.01,0.01c-0.02,0.02-0.04,0.05-0.06,0.07c-0.02,0.02-0.03,0.03-0.05,0.05c-0.01,0.02-0.03,0.03-0.04,0.05
	c-0.02,0.02-0.03,0.04-0.05,0.05c-0.01,0.02-0.03,0.03-0.04,0.05c-0.01,0.02-0.03,0.03-0.04,0.05c-0.02,0.02-0.04,0.05-0.06,0.07
	l-0.03,0.03l-0.04,0.05l0,0c-0.02,0.03-0.05,0.06-0.07,0.09c-0.15,0.18-0.25,0.34-0.31,0.46c-0.06,0.08-0.14,0.22-0.22,0.39
	c-0.12,0.26-0.17,0.5-0.21,0.67c-0.03,0.09-0.06,0.23-0.09,0.4c-0.02,0.14-0.03,0.28-0.03,0.42c0,0.1,0,0.2,0.01,0.31v0.06
	c0,0.02,0,0.04,0,0.07c-0.09,0.11-0.17,0.21-0.25,0.31c-0.8,1.04-0.96,2.4-0.96,3.36c0,0.65,0.08,1.31,0.22,1.8
	c0.01,0.02,0.01,0.05,0.02,0.07c0.01,0.05,0.03,0.11,0.04,0.16c0.33,1.03,1.19,1.94,2.26,2.4c0.24,0.12,0.46,0.19,0.69,0.24
	c0.14,0.03,3.52,0.67,5.36-1.36c0.05-0.05,0.09-0.1,0.14-0.16c0.06,0,0.12-0.01,0.17-0.02c0.19-0.01,0.44-0.03,0.72-0.09
	c0.18-0.04,0.31-0.1,0.4-0.13c0.17-0.06,0.4-0.14,0.63-0.27c0.17-0.1,0.3-0.2,0.37-0.27c0.12-0.09,0.26-0.2,0.42-0.36
	c0.02-0.02,0.04-0.04,0.07-0.07l0,0l0,0c0.01-0.02,0.03-0.03,0.04-0.05c0.02-0.02,0.04-0.04,0.06-0.07
	c0.02-0.02,0.03-0.04,0.05-0.06c0.02-0.02,0.03-0.03,0.05-0.05c0.02-0.02,0.04-0.04,0.06-0.06l0.04-0.04l0.02-0.02
	c0.02-0.02,0.04-0.04,0.06-0.06c0.02-0.02,0.04-0.05,0.06-0.07l0,0l0.04-0.04l0.01-0.02c0.02-0.02,0.04-0.05,0.06-0.07
	c0.02-0.02,0.03-0.03,0.05-0.05c0.01-0.01,0.03-0.03,0.04-0.04c0.02-0.02,0.04-0.04,0.06-0.07l0.04-0.04l0.03-0.03
	c0.02-0.02,0.03-0.04,0.05-0.06c0.01-0.02,0.03-0.03,0.04-0.05c0.02-0.03,0.05-0.05,0.07-0.08l0,0l0,0
	c0.02-0.02,0.04-0.05,0.07-0.07c0.01-0.02,0.03-0.03,0.04-0.05c0.01-0.02,0.03-0.03,0.04-0.05c0.02-0.02,0.04-0.05,0.07-0.07
	l0.04-0.04l0.01-0.01c0.02-0.02,0.04-0.04,0.06-0.06c0.01-0.02,0.03-0.03,0.04-0.05c0.02-0.02,0.03-0.04,0.05-0.05
	c0.02-0.02,0.03-0.04,0.05-0.05c0.01-0.02,0.03-0.03,0.04-0.05c0.01-0.01,0.03-0.03,0.04-0.04c0.01-0.01,0.03-0.03,0.04-0.04
	c0.02-0.02,0.03-0.04,0.05-0.05c0.02-0.02,0.04-0.05,0.07-0.07l0,0l0,0c0.02-0.02,0.04-0.05,0.06-0.07
	c0.01-0.02,0.03-0.03,0.04-0.05c0.02-0.02,0.03-0.04,0.05-0.05c0.02-0.02,0.03-0.03,0.05-0.05c0.01-0.02,0.03-0.03,0.04-0.05
	c0.02-0.02,0.04-0.05,0.06-0.07l0,0c0.03-0.03,0.05-0.06,0.08-0.09l0.03-0.03c0,0,0.02-0.02,0.04-0.05
	c0.01-0.02,0.03-0.03,0.04-0.05c0.02-0.02,0.03-0.03,0.05-0.05c0.02-0.02,0.03-0.04,0.05-0.06c0.01-0.01,0.03-0.03,0.04-0.04
	c0.02-0.02,0.04-0.05,0.06-0.07l0.04-0.05l0.01-0.01c0.02-0.03,0.05-0.05,0.07-0.08c0.01-0.01,0.03-0.03,0.04-0.04
	c0.02-0.02,0.03-0.03,0.05-0.05c0.02-0.02,0.03-0.04,0.05-0.06c0.01-0.01,0.03-0.03,0.04-0.04c0.02-0.02,0.03-0.03,0.04-0.05
	c0.02-0.02,0.04-0.05,0.06-0.07l0.01-0.01c0.02-0.02,0.04-0.05,0.06-0.07c0.01-0.02,0.03-0.03,0.04-0.05
	c0.01-0.02,0.03-0.03,0.04-0.05c0.01-0.02,0.03-0.03,0.04-0.05c0.02-0.02,0.03-0.04,0.05-0.06c0.01-0.02,0.03-0.03,0.04-0.05
	c0.02-0.02,0.04-0.05,0.06-0.07l0,0l0,0l0.07-0.07c0.02-0.02,0.04-0.04,0.06-0.07c0.01-0.02,0.03-0.03,0.04-0.05
	c0.02-0.02,0.03-0.03,0.04-0.05c0.02-0.02,0.04-0.04,0.06-0.07l0,0c0,0,0.02-0.02,0.03-0.04c0.01-0.02,0.03-0.03,0.04-0.05
	c0.01-0.02,0.03-0.03,0.04-0.05l3.94-1.3c0.02-0.01,0.09-0.03,0.11-0.04c0.24-0.09,0.48-0.2,0.72-0.33
	c1.76,0.01,3.26-0.56,4.31-1.65c0.03-0.03,0.07-0.07,0.1-0.1l62.57-69.48c0.02-0.02,0.03-0.04,0.05-0.05
	c0.64-0.72,1.06-1.62,1.23-2.64c0.84-0.92,1.29-2.15,1.29-3.55c0-0.77-0.14-1.59-0.41-2.43c-1.34-4.12-5.71-8.06-9.95-8.96
	C95.74,14.44,93.53,15.07,92.26,16.62z"/>
<path class="st0" d="M97.83,16.93c-3.55-0.76-5.53,1.43-4.4,4.89c1.12,3.46,4.91,6.87,8.47,7.63c3.55,0.76,5.53-1.43,4.4-4.89
	C105.18,21.1,101.38,17.68,97.83,16.93z"/>
<path class="st1" d="M91.45,19.41L91.45,19.41L28.81,88.97l13.18,11.79l62.57-69.48l0,0c0.9-0.97,1.14-2.53,0.52-4.44
	c-1.23-3.79-5.39-7.54-9.29-8.37C93.84,18.05,92.32,18.44,91.45,19.41z"/>
<path class="st2" d="M33.2,87.96c-3.9-0.83-6.06,1.57-4.83,5.36s5.39,7.54,9.29,8.37s6.06-1.57,4.83-5.36
	C41.26,92.54,37.1,88.79,33.2,87.96z"/>
<path class="st3" d="M27.75,93.41L27.75,93.41c-0.01,0.05-0.02,0.1-0.03,0.15l-0.85,4.36l6.29,5.88l4.44-1.47
	c0.02-0.01,0.04-0.01,0.05-0.02l0,0l0,0c1.5-0.52,2.14-2.08,1.45-4.18c-0.97-3-4.27-5.96-7.35-6.62
	C29.6,91.03,28.1,91.84,27.75,93.41z"/>
<path class="st4" d="M23.06,102.16c0.01-0.02,0.03-0.03,0.04-0.05c0.01-0.02,0.03-0.03,0.04-0.05c0.01-0.02,0.03-0.03,0.04-0.05
	c0.01-0.02,0.03-0.03,0.04-0.05c0.01-0.02,0.03-0.03,0.04-0.05c0.01-0.02,0.03-0.03,0.04-0.05c0.01-0.02,0.03-0.03,0.04-0.05
	c0.01-0.02,0.03-0.03,0.04-0.05c0.01-0.02,0.03-0.03,0.04-0.05c0.01-0.02,0.03-0.03,0.04-0.05c0.01-0.02,0.03-0.03,0.04-0.05
	c0.01-0.02,0.03-0.03,0.04-0.05c0.01-0.02,0.03-0.03,0.04-0.05c0.01-0.02,0.03-0.03,0.04-0.05c0.01-0.02,0.03-0.03,0.04-0.05
	c0.01-0.02,0.03-0.03,0.04-0.05c0.01-0.02,0.03-0.03,0.04-0.05c0.01-0.02,0.03-0.03,0.04-0.05c0.01-0.02,0.03-0.03,0.04-0.05
	c0.01-0.02,0.03-0.03,0.04-0.05c0.01-0.02,0.03-0.03,0.04-0.05c0.01-0.02,0.03-0.03,0.04-0.05c0.01-0.02,0.03-0.03,0.04-0.05
	c0.01-0.02,0.03-0.03,0.04-0.05c0.01-0.02,0.03-0.03,0.04-0.05c0.01-0.02,0.03-0.03,0.04-0.05c0.01-0.02,0.03-0.03,0.04-0.05
	c0.01-0.02,0.03-0.03,0.04-0.05c0.01-0.02,0.03-0.03,0.04-0.05c0.01-0.02,0.03-0.03,0.04-0.05c0.01-0.02,0.03-0.03,0.04-0.05
	c0.01-0.02,0.03-0.03,0.04-0.05c0.01-0.02,0.03-0.03,0.04-0.05c0.01-0.02,0.03-0.03,0.04-0.05c0.01-0.02,0.03-0.03,0.04-0.05
	c0.01-0.02,0.03-0.03,0.04-0.05c0.01-0.02,0.03-0.03,0.04-0.05c0.01-0.02,0.03-0.03,0.04-0.05c0.01-0.02,0.03-0.03,0.04-0.05
	c0.01-0.02,0.03-0.03,0.04-0.05c0.01-0.02,0.03-0.03,0.04-0.05c0.01-0.02,0.03-0.03,0.04-0.05c0.01-0.02,0.03-0.03,0.04-0.05
	c0.01-0.02,0.03-0.03,0.04-0.05c0.01-0.02,0.03-0.03,0.04-0.05c0.01-0.02,0.03-0.03,0.04-0.05c0.01-0.02,0.03-0.03,0.04-0.05
	c0.01-0.02,0.03-0.03,0.04-0.05c0.01-0.02,0.03-0.03,0.04-0.05c0.01-0.02,0.03-0.03,0.04-0.05c0.01-0.02,0.03-0.03,0.04-0.05
	c0.01-0.02,0.03-0.03,0.04-0.05c0.01-0.02,0.03-0.03,0.04-0.05c0.01-0.02,0.03-0.03,0.04-0.05c0.01-0.02,0.03-0.03,0.04-0.05
	c0.01-0.02,0.03-0.03,0.04-0.05c0.01-0.02,0.03-0.03,0.04-0.05c0.01-0.02,0.03-0.03,0.04-0.05c0.01-0.02,0.03-0.03,0.04-0.05
	c0.01-0.02,0.03-0.03,0.04-0.05c0.01-0.02,0.03-0.03,0.04-0.05c0.01-0.02,0.03-0.03,0.04-0.05c0.01-0.02,0.03-0.03,0.04-0.05
	c0.01-0.02,0.03-0.03,0.04-0.05c0.01-0.02,0.03-0.03,0.04-0.05c0.01-0.02,0.03-0.03,0.04-0.05c0.01-0.02,0.03-0.03,0.04-0.05
	c0.01-0.02,0.03-0.03,0.04-0.05c0.01-0.02,0.03-0.03,0.04-0.05c0.01-0.02,0.03-0.03,0.04-0.05c0.01-0.02,0.03-0.03,0.04-0.05
	c0.01-0.02,0.03-0.03,0.04-0.05c0.01-0.02,0.03-0.03,0.04-0.05c0.01-0.02,0.03-0.03,0.04-0.05c0.01-0.02,0.03-0.03,0.04-0.05
	c0.01-0.02,0.03-0.03,0.04-0.05c0.01-0.02,0.03-0.03,0.04-0.05c0.01-0.02,0.03-0.03,0.04-0.05c0.01-0.02,0.03-0.03,0.04-0.05
	c0.01-0.02,0.03-0.03,0.04-0.05c0.01-0.02,0.03-0.03,0.04-0.05c0.01-0.02,0.03-0.03,0.04-0.05c0.01-0.02,0.03-0.03,0.04-0.05
	c0.01-0.02,0.03-0.03,0.04-0.05c0.01-0.02,0.03-0.03,0.04-0.05c0.42-0.49,1.17-0.7,2.14-0.49c1.9,0.4,3.93,2.23,4.53,4.08
	c0.3,0.94,0.18,1.7-0.26,2.18c-0.01,0.02-0.03,0.03-0.04,0.05c-0.01,0.02-0.03,0.03-0.04,0.05c-0.01,0.02-0.03,0.03-0.04,0.05
	c-0.01,0.02-0.03,0.03-0.04,0.05c-0.01,0.02-0.03,0.03-0.04,0.05c-0.01,0.02-0.03,0.03-0.04,0.05c-0.01,0.02-0.03,0.03-0.04,0.05
	c-0.01,0.02-0.03,0.03-0.04,0.05c-0.01,0.02-0.03,0.03-0.04,0.05c-0.01,0.02-0.03,0.03-0.04,0.05c-0.01,0.02-0.03,0.03-0.04,0.05
	c-0.01,0.02-0.03,0.03-0.04,0.05c-0.01,0.02-0.03,0.03-0.04,0.05c-0.01,0.02-0.03,0.03-0.04,0.05c-0.01,0.02-0.03,0.03-0.04,0.05
	c-0.01,0.02-0.03,0.03-0.04,0.05c-0.01,0.02-0.03,0.03-0.04,0.05c-0.01,0.02-0.03,0.03-0.04,0.05c-0.01,0.02-0.03,0.03-0.04,0.05
	c-0.01,0.02-0.03,0.03-0.04,0.05c-0.01,0.02-0.03,0.03-0.04,0.05c-0.01,0.02-0.03,0.03-0.04,0.05c-0.01,0.02-0.03,0.03-0.04,0.05
	c-0.01,0.02-0.03,0.03-0.04,0.05s-0.03,0.03-0.04,0.05c-0.01,0.02-0.03,0.03-0.04,0.05s-0.03,0.03-0.04,0.05
	c-0.01,0.02-0.03,0.03-0.04,0.05s-0.03,0.03-0.04,0.05c-0.01,0.02-0.03,0.03-0.04,0.05s-0.03,0.03-0.04,0.05
	c-0.01,0.02-0.03,0.03-0.04,0.05s-0.03,0.03-0.04,0.05c-0.01,0.02-0.03,0.03-0.04,0.05s-0.03,0.03-0.04,0.05
	c-0.01,0.02-0.03,0.03-0.04,0.05s-0.03,0.03-0.04,0.05c-0.01,0.02-0.03,0.03-0.04,0.05s-0.03,0.03-0.04,0.05
	c-0.01,0.02-0.03,0.03-0.04,0.05s-0.03,0.03-0.04,0.05c-0.01,0.02-0.03,0.03-0.04,0.05s-0.03,0.03-0.04,0.05
	c-0.01,0.02-0.03,0.03-0.04,0.05s-0.03,0.03-0.04,0.05c-0.01,0.02-0.03,0.03-0.04,0.05s-0.03,0.03-0.04,0.05
	c-0.01,0.02-0.03,0.03-0.04,0.05s-0.03,0.03-0.04,0.05c-0.01,0.02-0.03,0.03-0.04,0.05s-0.03,0.03-0.04,0.05
	c-0.01,0.02-0.03,0.03-0.04,0.05s-0.03,0.03-0.04,0.05c-0.01,0.02-0.03,0.03-0.04,0.05s-0.03,0.03-0.04,0.05
	c-0.01,0.02-0.03,0.03-0.04,0.05s-0.03,0.03-0.04,0.05c-0.01,0.02-0.03,0.03-0.04,0.05s-0.03,0.03-0.04,0.05
	c-0.01,0.02-0.03,0.03-0.04,0.05s-0.03,0.03-0.04,0.05c-0.01,0.02-0.03,0.03-0.04,0.05s-0.03,0.03-0.04,0.05
	c-0.01,0.02-0.03,0.03-0.04,0.05s-0.03,0.03-0.04,0.05c-0.01,0.02-0.03,0.03-0.04,0.05s-0.03,0.03-0.04,0.05
	c-0.01,0.02-0.03,0.03-0.04,0.05s-0.03,0.03-0.04,0.05c-0.01,0.02-0.03,0.03-0.04,0.05s-0.03,0.03-0.04,0.05
	c-0.01,0.02-0.03,0.03-0.04,0.05s-0.03,0.03-0.04,0.05c-0.01,0.02-0.03,0.03-0.04,0.05s-0.03,0.03-0.04,0.05
	c-0.01,0.02-0.03,0.03-0.04,0.05s-0.03,0.03-0.04,0.05c-0.01,0.02-0.03,0.03-0.04,0.05s-0.03,0.03-0.04,0.05
	c-0.01,0.02-0.03,0.03-0.04,0.05s-0.03,0.03-0.04,0.05c-0.01,0.02-0.03,0.03-0.04,0.05s-0.03,0.03-0.04,0.05
	c-0.01,0.02-0.03,0.03-0.04,0.05s-0.03,0.03-0.04,0.05c-0.01,0.02-0.03,0.03-0.04,0.05s-0.03,0.03-0.04,0.05
	c-0.42,0.49-1.17,0.7-2.14,0.49c-1.9-0.4-3.93-2.23-4.53-4.08c-0.31-0.94-0.18-1.7,0.26-2.18c0.01-0.02,0.03-0.03,0.04-0.05
	C23.03,102.19,23.04,102.17,23.06,102.16z"/>
<path class="st0" d="M25.43,102.73c1.35,0.29,2.79,1.58,3.22,2.9c0.24,0.75,0.1,1.35-0.32,1.66c-0.37,0.42-1.18,1.33-1.88,2.11
	c-0.95,1.05-3.06,0.83-3.49,0.74c-0.43-0.09-1.28-0.76-1.47-1.45c-0.19-0.68-0.29-2.48,0.41-3.39c0.7-0.91,2.13-2.35,2.13-2.35l0,0
	C24.34,102.7,24.82,102.6,25.43,102.73z"/>
<path class="st5" d="M22.28,108.03c-0.6-0.13-0.93,0.24-0.74,0.82c0.19,0.58,0.83,1.16,1.43,1.29c0.6,0.13,0.93-0.24,0.74-0.82
	C23.51,108.73,22.87,108.16,22.28,108.03z"/>
<path class="st6" d="M29.05,88.71L29.05,88.71L29.05,88.71z"/>
</svg>
