<svg xmlns="http://www.w3.org/2000/svg" width="42" height="41">
    <path fill="#0B0C11" fill-rule="evenodd" d="M40.823 35.878l-6.47-6.513c2.181-3.048 3.481-6.774 3.481-10.809C37.834 8.324 29.566 0 19.404 0 9.242 0 .974 8.324.974 18.556c0 10.231 8.268 18.554 18.43 18.554 4.007 0 7.709-1.307 10.736-3.502l6.47 6.513c.582.586 1.344.88 2.106.88.763 0 1.525-.294 2.107-.88 1.164-1.171 1.164-3.071 0-4.243zM6.933 18.556c0-6.924 5.594-12.557 12.471-12.557 6.876 0 12.47 5.633 12.47 12.557 0 3.432-1.377 6.543-3.601 8.812-.021.02-.044.033-.064.052-.02.021-.033.044-.052.065-2.254 2.239-5.345 3.626-8.753 3.626-6.877 0-12.471-5.631-12.471-12.555z"/>
</svg>
