<?xml version="1.0" encoding="utf-8"?>
<!-- Generator: Adobe Illustrator 24.1.0, SVG Export Plug-In . SVG Version: 6.00 Build 0)  -->
<svg version="1.1" id="Livello_1" xmlns="http://www.w3.org/2000/svg" xmlns:xlink="http://www.w3.org/1999/xlink" x="0px" y="0px"
	 viewBox="0 0 110.34 186.48" style="enable-background:new 0 0 110.34 186.48;" xml:space="preserve">
<style type="text/css">
	.st0{fill:#0B0C11;}
	.st1{fill:#0B0C11;stroke:#0B0C11;stroke-width:2;stroke-miterlimit:10;}
	.st2{fill:#FFC403;}
</style>
<g>
	<path class="st0" d="M97.41,150.31c-0.04-0.04-0.08-0.08-0.13-0.12l0,0c-0.01-0.01-0.02-0.02-0.04-0.04l-0.01-0.04l0,0l-0.79-2.73
		l-0.15-0.52l-0.06-0.21l-0.06-0.21c-3.49-12.08-7.08-24.57-10.86-36.78c-0.16-0.53-0.36-0.95-0.77-1.28l0-0.01
		c-0.01-0.01-0.02-0.01-0.04-0.03c0-0.01,0-0.02-0.01-0.03l0,0c-0.04-0.17-0.08-0.31-0.16-0.45c-0.42-0.88-1.51-1.39-2.42-1.14
		c-0.16,0.04-0.29,0.1-0.42,0.17c-8.42,4.87-17.83,9.01-28.77,12.63c-3.83,1.25-7.89,2.45-12.09,3.57
		c-5.39,1.44-11.26,2.83-17.93,4.26c-0.03,0.01-0.07,0.02-0.1,0.03c-1.02,0.27-1.68,1.2-1.61,2.21L21,129.61
		c0,0.02,0,0.05,0.01,0.06c0,0.02-0.01,0.04-0.01,0.06c0,0.01,0,0.02,0,0.02c-0.06,0.28-0.07,0.56-0.01,0.8
		c2.08,7.59,4.4,15.23,6.66,22.62l0.05,0.15l0.04,0.16l0.05,0.19c1.89,6.2,3.85,12.61,5.63,18.96c0.07,0.28,0.17,0.5,0.28,0.69
		c0,0.01,0,0.02,0.01,0.03c0.02,0.03,0.04,0.06,0.06,0.09c0.01,0.03,0.03,0.07,0.04,0.1c0,0.01,0.01,0.01,0.01,0.01
		c0.32,0.75,1.01,1.27,1.76,1.29c8.61,0.25,17.57-0.85,26.64-3.28c1.87-0.5,3.7-1.05,5.43-1.61c5.66-1.84,10.89-4.06,15.58-6.6
		c4.99-2.71,9.39-5.8,13.08-9.18c0.3-0.27,0.58-0.55,0.88-0.83C98.06,152.47,98.16,151.18,97.41,150.31z M66.95,165.74
		c-1.81,0.59-3.63,1.13-5.42,1.61c-6.52,1.75-13.09,2.82-19.56,3.17c-1.62,0.07-3.2,0.1-4.71,0.07c-1.72-6.04-3.56-12.08-5.35-17.92
		l-0.11-0.37c-2.11-6.92-4.3-14.07-6.24-21.19c0-0.02-0.01-0.03-0.01-0.04l0,0c0-0.01,0-0.01,0-0.02
		c5.91-1.28,11.18-2.54,16.13-3.87c15.69-4.2,28.73-9.26,39.86-15.45l0,0l0,0l0.01,0c0,0,0.01,0.01,0.02,0.01l0,0c0,0,0,0,0,0.01
		c3.68,11.98,7.17,24.12,10.55,35.87l0.04,0.16l0.04,0.16l0.94,3.33c-1.99,1.8-4.25,3.56-6.73,5.21
		C80.77,160.18,74.21,163.3,66.95,165.74z"/>
	<path class="st1" d="M108.4,154.93c0-0.14-0.01-0.28-0.05-0.43c-4.14-16.86-9.37-33.41-14.6-49.95c-0.06-0.19-0.13-0.36-0.18-0.54
		c-0.17-0.34-0.4-0.61-0.72-0.83c-0.17-0.12-0.37-0.21-0.57-0.26c-0.08-0.15-0.17-0.28-0.28-0.38c-4.38-4.06-9.13-7.65-14.09-10.99
		c-4.86-3.28-9.89-6.31-14.87-9.39C55.73,56.2,47.05,30.65,40.17,4.57c-0.11-0.42-0.28-0.79-0.57-1.09c0-0.08-0.01-0.16-0.02-0.24
		c-0.1-0.55-0.43-1.06-0.89-1.38c-0.5-0.34-1.02-0.4-1.6-0.34c-3.33,0.36-6.59,1.01-9.79,1.87C18.91,5.64,10.9,9.28,2.96,12.74
		c-0.77,0.34-1.19,1.14-1.19,1.94c-0.24,0.42-0.34,0.91-0.22,1.4c6.66,26.94,15.03,53.42,21.5,80.41c0.06,0.26,0.17,0.5,0.3,0.71
		c-5.06,10.06-10.12,20.2-13.32,31.03c-0.16,0.56-0.17,1.13,0.1,1.66c0.08,0.16,0.18,0.31,0.31,0.45c0,0.12,0.02,0.24,0.05,0.36
		c4.46,15.23,9.14,30.4,14.11,45.47c0.03,0.19,0.09,0.37,0.18,0.54l0,0.01c0.67,2.02,1.34,4.03,2.02,6.04
		c0.05,0.15,0.14,0.29,0.25,0.42c0.2,0.89,0.96,1.65,1.9,1.68c11.65,0.48,23.38-0.72,34.69-3.56c11.43-2.87,22.5-7.43,32.37-13.92
		c4.31-2.83,8.37-6,12.1-9.56C108.92,157.08,109.1,155.84,108.4,154.93z M32.76,6.5c1.18-0.23,2.32-0.42,3.38-0.55l0,0l0,0
		c3.86,14.58,8.36,29.23,12.7,43.41c3.43,11.19,6.98,22.76,10.2,34.28c-0.9,0.74-1.82,1.44-2.75,2.08
		c-0.11,0.08-0.23,0.15-0.34,0.23l0,0l-0.01,0c-3.67-13.29-7.7-26.7-11.59-39.68C40.47,33.32,36.45,19.92,32.76,6.5
		C32.75,6.51,32.75,6.51,32.76,6.5L32.76,6.5z M28.58,7.47L28.58,7.47c3.64,13.14,7.62,26.42,11.48,39.26l0.08,0.28
		c4.03,13.46,8.2,27.37,12,41.21l0,0l0,0c-0.94,0.5-1.9,0.98-2.86,1.4c-0.06,0.02-0.11,0.05-0.17,0.07
		c-3.12-11.16-6.52-22.29-9.81-33.07l-0.02-0.09C34.64,41.28,29.82,25.5,25.82,9.76l-0.2-0.83l-0.14-0.57l0,0l0-0.01
		c0.89-0.27,1.77-0.52,2.63-0.75L28.58,7.47z M21.4,9.71l0.01,0.01c4.06,16.06,8.97,32.13,13.71,47.67l0.08,0.27
		c3.31,10.86,6.73,22.08,9.84,33.2l0.12,0.47l0,0l0,0.01l0,0l0,0c-0.34,0.13-0.69,0.25-1.03,0.37c-0.77,0.24-1.53,0.48-2.28,0.67
		c-3.26-12.17-7.01-24.31-10.64-36.11c-3.98-12.93-8.11-26.29-11.57-39.6c-0.51-1.97-1-3.9-1.43-5.73l0,0l0-0.01
		C19.3,10.49,20.38,10.08,21.4,9.71L21.4,9.71z M14.19,12.54l0.01,0.01c3.72,15.06,8.37,30.13,12.86,44.7l0.05,0.15
		c3.23,10.46,6.56,21.29,9.55,32.05c0.35,1.26,0.69,2.52,1.02,3.8c0.01,0.05,0.03,0.09,0.04,0.15l0,0l0,0.01
		c-1.2,0.26-2.43,0.49-3.66,0.68c-2.01-6.96-4.17-14.27-5.92-20.15c-5.67-19.18-11.55-39.01-16.22-58.87
		c-0.11-0.47-0.21-0.94-0.32-1.42l0,0l0-0.01l0,0l0,0C12.46,13.27,13.32,12.9,14.19,12.54L14.19,12.54z M7.59,15.38L7.59,15.38
		l0.01,0.01l0,0l0,0c4.68,19.99,10.61,40.01,16.34,59.36l0.06,0.24c1.86,6.3,3.79,12.8,5.63,19.23c0.04,0.16,0.09,0.3,0.13,0.45l0,0
		c0,0.01,0,0.01,0,0.02c-0.97,0.1-1.85,0.19-2.72,0.25c-3.37-13.97-7.29-28.01-11.09-41.58C12.57,41.18,9.05,28.6,5.95,16.1l0,0
		c0,0,0-0.01,0-0.02l1-0.43L7.59,15.38z M93.97,163.69c-7.01,4.58-14.88,8.36-23.42,11.22c-1.98,0.64-3.99,1.24-5.98,1.78
		c-7.99,2.14-16.29,3.46-24.69,3.91c-3.16,0.15-6.3,0.18-9.34,0.06l-0.07-0.21l-0.11-0.33l-0.96-2.85l-0.28-0.83l-0.26-0.78
		c-0.04-0.12-0.08-0.23-0.12-0.34c-0.05-0.27-0.15-0.54-0.24-0.75l-0.02-0.11l-0.05-0.14l-0.05-0.14c-0.23-0.67-0.44-1.35-0.66-2.02
		c-0.44-1.35-0.88-2.69-1.31-4.04c-0.83-2.57-1.65-5.12-2.46-7.7c-3.1-9.81-6.13-19.79-9.28-30.5c-0.11-0.39-0.23-0.67-0.4-0.91l0,0
		c0-0.01-0.01-0.01-0.02-0.02c3.25-10.74,8.35-20.87,12.84-29.81c0.01,0,0.01,0,0.02,0l0,0c1.42-0.1,2.86-0.25,4.27-0.42l0,0
		c0.01,0,0.03-0.01,0.04,0l0.03,0.02l0.04,0.02c0.05,0,0.1-0.01,0.15-0.01c0.27-0.05,0.55-0.1,0.83-0.15
		c0.63-0.11,1.26-0.22,1.91-0.32l0.03-0.01l0,0l0.5-0.08l0.29-0.04l0.07,0c1.26-0.22,2.52-0.46,3.73-0.73l0,0l0.01,0c0,0,0,0,0.06,0
		l0.43-0.12l0.16-0.04c0.52-0.13,1.05-0.26,1.57-0.38l0.35-0.08l0.21-0.05c0.15-0.04,0.29-0.07,0.43-0.11
		c0.16-0.04,0.32-0.09,0.48-0.15c0.01,0,0.01,0,0.02,0l0,0c1.05-0.3,2.07-0.61,3.02-0.93c5.8-1.94,11-4.71,15.44-8.23
		c0.01-0.04,0.03-0.06,0.04-0.08l0.07-0.06c0.16-0.14,0.31-0.3,0.44-0.43c-0.01-0.04-0.01-0.09,0.02-0.13
		c0.03-0.05,0.06-0.07,0.11-0.08c0.03-0.01,0.07,0,0.13,0.02l0.09,0.04l0.35,0.17l0.31,0.15l0.01,0.01l0,0l0.09,0.06l0.13,0.08
		c0.09,0.05,0.17,0.1,0.3,0.19l0.09,0.06c8.32,5.13,16.91,10.43,24.38,17.03c0.34,0.31,0.68,0.62,1.03,0.93
		c0.24,0.22,0.54,0.47,0.94,0.62l0,0c0.01,0.01,0.02,0,0.03,0.01l0.04,0.14c4.75,15,10.14,31.99,14.37,49.17
		c0.02,0.09,0.05,0.17,0.07,0.27l0.01,0.06l0,0l0.01,0.03C101.12,158.51,97.66,161.22,93.97,163.69z"/>
	<path class="st2" d="M7.59,15.38L7.59,15.38l-0.64,0.28l-1,0.43c3.1,12.5,6.61,25.09,10.02,37.26c3.8,13.58,7.72,27.61,11.09,41.58
		c0.87-0.06,1.75-0.15,2.72-0.25C27.9,88.11,25.92,81.45,24.02,75l-0.07-0.24C18.22,55.41,12.29,35.39,7.61,15.4
		C7.61,15.38,7.6,15.38,7.59,15.38L7.59,15.38L7.59,15.38z"/>
	<path class="st2" d="M14.19,12.54L14.19,12.54c-0.87,0.36-1.73,0.73-2.59,1.1c0.1,0.48,0.21,0.96,0.33,1.43
		c4.68,19.86,10.54,39.69,16.22,58.87c1.74,5.88,3.91,13.2,5.92,20.15c1.23-0.19,2.46-0.42,3.66-0.68c-0.35-1.33-0.7-2.65-1.06-3.96
		c-2.98-10.76-6.32-21.58-9.55-32.05l-0.05-0.15C22.57,42.66,17.92,27.6,14.19,12.54C14.2,12.55,14.19,12.54,14.19,12.54
		L14.19,12.54L14.19,12.54z"/>
	<path class="st2" d="M21.4,9.71L21.4,9.71c-1.02,0.37-2.1,0.78-3.2,1.21c0.44,1.84,0.93,3.77,1.44,5.74
		c3.46,13.31,7.58,26.68,11.57,39.6c3.64,11.79,7.39,23.95,10.64,36.11c0.74-0.2,1.51-0.43,2.28-0.67c0.35-0.12,0.69-0.24,1.04-0.37
		l-0.12-0.48c-3.1-11.12-6.52-22.34-9.84-33.2l-0.08-0.27c-4.75-15.54-9.64-31.6-13.7-47.66C21.41,9.72,21.4,9.71,21.4,9.71
		L21.4,9.71L21.4,9.71z"/>
	<path class="st2" d="M28.1,7.59L28.1,7.59c-0.86,0.23-1.74,0.49-2.63,0.75l0.14,0.58l0.2,0.83c4,15.73,8.82,31.52,13.48,46.79
		l0.02,0.09C42.59,67.4,46,78.55,49.12,89.71c1.02-0.45,2.03-0.94,3.02-1.47c-3.79-13.85-7.96-27.76-12-41.22l-0.08-0.28
		c-3.85-12.85-7.83-26.13-11.47-39.27L28.1,7.59L28.1,7.59L28.1,7.59z"/>
	<path class="st2" d="M32.76,6.5C32.76,6.5,32.75,6.51,32.76,6.5c3.7,13.43,7.71,26.81,11.6,39.76
		c3.89,12.97,7.91,26.39,11.59,39.68c1.04-0.7,2.09-1.48,3.09-2.31c-3.22-11.52-6.77-23.09-10.2-34.28
		c-4.34-14.17-8.84-28.82-12.7-43.41C35.06,6.09,33.93,6.28,32.76,6.5L32.76,6.5L32.76,6.5L32.76,6.5z"/>
	<path class="st2" d="M61.86,86.59c-0.03,0.01-0.07,0.04-0.1,0.08c-0.03,0.04-0.03,0.09-0.02,0.13c-0.13,0.14-0.28,0.29-0.44,0.43
		l-0.07,0.06c-0.02,0.02-0.04,0.04-0.04,0.08c-4.44,3.52-9.64,6.28-15.44,8.23c-0.95,0.32-1.97,0.64-3.03,0.94
		c-0.16,0.06-0.32,0.1-0.48,0.15c-0.15,0.04-0.3,0.07-0.43,0.11l-0.21,0.05l-0.35,0.08c-0.52,0.12-1.05,0.25-1.57,0.38l-0.16,0.04
		l-0.43,0.12c-0.06,0-0.06,0-0.06,0c-1.22,0.27-2.47,0.52-3.75,0.74c0,0-0.06,0-0.07,0l-0.29,0.04l-0.52,0.08
		c-0.92,0.15-1.83,0.29-2.74,0.47c-0.05,0.01-0.11,0.01-0.15,0.01l-0.07-0.04c-1.43,0.17-2.89,0.31-4.34,0.42
		c-4.5,8.94-9.6,19.07-12.84,29.8c0.18,0.25,0.3,0.54,0.42,0.93c3.14,10.71,6.17,20.69,9.28,30.5c0.82,2.57,1.63,5.13,2.46,7.7
		c0.44,1.35,0.88,2.7,1.31,4.04c0.22,0.67,0.44,1.35,0.66,2.02l0.05,0.14l0.06,0.14l0.04,0.1c0.08,0.22,0.18,0.49,0.24,0.75
		c0.04,0.12,0.08,0.23,0.12,0.34l0.26,0.78l0.28,0.83l0.96,2.85l0.11,0.33l0.07,0.21c3.03,0.11,6.16,0.08,9.33-0.07
		c8.39-0.46,16.7-1.77,24.69-3.91c1.99-0.53,4-1.13,5.98-1.78c8.53-2.86,16.41-6.64,23.42-11.22c3.7-2.47,7.15-5.18,10.28-8.05
		l-0.01-0.09c-0.03-0.09-0.05-0.18-0.07-0.27c-4.23-17.18-9.61-34.18-14.37-49.17l-0.04-0.14c-0.42-0.16-0.72-0.42-0.98-0.64
		c-0.34-0.31-0.68-0.62-1.03-0.93c-7.46-6.6-16.06-11.9-24.38-17.03l-0.09-0.06c-0.12-0.09-0.21-0.14-0.3-0.19l-0.13-0.08
		l-0.11-0.06l-0.31-0.15l-0.35-0.17l-0.09-0.04C61.92,86.58,61.89,86.58,61.86,86.59L61.86,86.59L61.86,86.59z M40.65,123.08
		c4.19-1.12,8.26-2.32,12.09-3.57c10.94-3.62,20.35-7.76,28.77-12.63c0.13-0.07,0.26-0.13,0.42-0.17c0.91-0.24,2,0.27,2.42,1.14
		c0.07,0.14,0.13,0.3,0.16,0.47c0.44,0.33,0.64,0.77,0.81,1.32c3.78,12.21,7.38,24.71,10.85,36.78l0.06,0.21l0.06,0.21l0.15,0.52
		l0.8,2.78c0.06,0.06,0.11,0.11,0.17,0.17c0.75,0.87,0.66,2.16-0.21,2.99c-0.29,0.28-0.58,0.55-0.88,0.83
		c-3.69,3.38-8.09,6.47-13.08,9.18c-4.68,2.54-9.92,4.76-15.58,6.6c-1.74,0.57-3.56,1.11-5.43,1.61
		c-9.07,2.43-18.04,3.53-26.64,3.28c-0.78-0.03-1.52-0.59-1.81-1.41c-0.14-0.22-0.25-0.48-0.35-0.81
		c-1.79-6.34-3.74-12.76-5.63-18.96l-0.06-0.19l-0.04-0.16l-0.04-0.16c-2.25-7.38-4.59-15.02-6.66-22.62
		c-0.07-0.27-0.07-0.56,0.01-0.88c-0.1-1.04,0.57-2.01,1.61-2.29c0.03-0.01,0.07-0.02,0.1-0.03
		C29.39,125.92,35.25,124.53,40.65,123.08L40.65,123.08L40.65,123.08z"/>
	<path class="st2" d="M81.54,111.75L81.54,111.75c-11.14,6.2-24.18,11.25-39.87,15.46c-4.94,1.32-10.22,2.59-16.13,3.87
		c1.95,7.13,4.14,14.31,6.26,21.25l0.11,0.37c1.79,5.84,3.63,11.88,5.35,17.92c1.5,0.03,3.09,0.01,4.71-0.07
		c6.46-0.36,13.04-1.44,19.56-3.18c1.79-0.48,3.61-1.02,5.42-1.61c7.27-2.45,13.82-5.56,19.48-9.26c2.46-1.66,4.73-3.41,6.73-5.21
		l-0.94-3.33l-0.04-0.16l-0.04-0.16c-3.38-11.74-6.87-23.89-10.55-35.87C81.57,111.76,81.54,111.74,81.54,111.75L81.54,111.75
		L81.54,111.75z"/>
</g>
</svg>
