<?xml version="1.0" encoding="utf-8"?>
<!-- Generator: Adobe Illustrator 24.1.0, SVG Export Plug-In . SVG Version: 6.00 Build 0)  -->
<svg version="1.1" id="emoji" xmlns="http://www.w3.org/2000/svg" xmlns:xlink="http://www.w3.org/1999/xlink" x="0px" y="0px"
	 viewBox="0 0 72 72" style="enable-background:new 0 0 72 72;" xml:space="preserve">
<style type="text/css">
	.st0{fill:#D0CFCE;}
	.st1{fill:#9B9B9A;}
	.st2{fill:none;}
	.st3{fill:none;stroke:#000000;stroke-width:2;stroke-linecap:round;stroke-linejoin:round;stroke-miterlimit:10;}
</style>
<g id="color">
	<path class="st0" d="M5.05,66.46l61.92-0.4L5.05,5.43L5.05,66.46z M30.85,58.21H14.79c-0.33,0-0.64-0.14-0.87-0.38
		c-0.12-0.12-0.21-0.26-0.27-0.42c-0.06-0.16-0.09-0.32-0.09-0.5c0,0,0,0,0,0l0,0l0.01-16.37c0-0.13,0.02-0.26,0.05-0.38
		c0.1-0.36,0.36-0.66,0.7-0.81c0.11-0.05,0.23-0.08,0.35-0.1c0.36-0.04,0.72,0.09,0.99,0.36l16.05,16.37l0,0l0,0
		c0.24,0.25,0.37,0.59,0.37,0.93c0,0.16-0.03,0.33-0.09,0.49c-0.14,0.37-0.43,0.64-0.78,0.75C31.1,58.19,30.98,58.21,30.85,58.21
		L30.85,58.21z"/>
	<polygon class="st1" points="5.46,6.17 5.72,16.8 56.63,66.32 67.54,66.43 	"/>
	<line class="st2" x1="47.96" y1="55.95" x2="46.01" y2="57.97"/>
	<line class="st2" x1="38.92" y1="47.23" x2="36.97" y2="49.25"/>
	<line class="st2" x1="34.4" y1="42.87" x2="32.45" y2="44.89"/>
	<line class="st2" x1="29.88" y1="38.51" x2="27.93" y2="40.53"/>
	<line class="st2" x1="25.36" y1="34.15" x2="23.41" y2="36.17"/>
	<line class="st2" x1="16.32" y1="25.43" x2="14.37" y2="27.46"/>
	<line class="st2" x1="43.58" y1="51.45" x2="40.25" y2="54.9"/>
	<line class="st2" x1="20.97" y1="29.65" x2="17.64" y2="33.11"/>
</g>
<g id="line">
	<polygon class="st3" points="68.05,66.61 5.21,66.61 5.25,5.72 	"/>
	<polygon class="st3" points="33.96,58.01 13.49,58.01 13.51,38.17 	"/>
	<line class="st3" x1="47.96" y1="55.95" x2="46.01" y2="57.97"/>
	<line class="st3" x1="38.92" y1="47.23" x2="36.97" y2="49.25"/>
	<line class="st3" x1="34.4" y1="42.87" x2="32.45" y2="44.89"/>
	<line class="st3" x1="29.88" y1="38.51" x2="27.93" y2="40.53"/>
	<line class="st3" x1="25.36" y1="34.15" x2="23.41" y2="36.17"/>
	<line class="st3" x1="16.32" y1="25.43" x2="14.37" y2="27.46"/>
	<line class="st3" x1="43.58" y1="51.45" x2="40.25" y2="54.9"/>
	<line class="st3" x1="20.97" y1="29.65" x2="17.64" y2="33.11"/>
</g>
</svg>
