<svg xmlns="http://www.w3.org/2000/svg" width="178" height="166">
    <path fill="#FFD101" fill-rule="evenodd" stroke="#0B0C11" stroke-width="6" d="M165.014 49.331c-14.214 18.478-26.198 34.776-35.949 48.892-9.753 14.115-15.767 23.654-18.041 28.616 4.592-.941 11.436-6.309 20.533-16.105.394-.514.678-.855.853-1.026.174-.171.328-.342.459-.514.744-.855 1.312-.321 1.706 1.604.174 1.113.295 1.893.361 2.342.065.449.131.92.197 1.412.065.492.098.824.098.994l.525 2.438c0 1.027-.548 2.246-1.64 3.657-2.887 3.68-7.511 7.904-13.875 12.672-6.363 4.77-11.053 7.154-14.071 7.154-3.018 0-5.379-.866-7.085-2.598-1.705-1.733-2.558-3.71-2.558-5.935 0-2.652 2.842-8.511 8.528-17.58 8.528-13.474 19.418-29.215 32.669-47.224-2.799 2.824-10.234 10.438-22.304 22.842-26.722 27.376-42.335 42.882-46.839 46.518-.744.599-1.827.897-3.247.897-1.422 0-2.919-.566-4.494-1.7-1.574-1.133-2.362-2.405-2.362-3.817v-.321c.175-1.796 4.396-10.587 12.661-26.37 8.266-15.784 15.197-28.338 20.796-37.664-8.266 8.898-16.62 18.822-25.06 29.772-16.05 20.788-27.793 38.497-35.227 53.126-.656 1.368-1.465 2.053-2.427 2.053s-2.362-.236-4.199-.706c-3.848-1.026-5.773-2.823-5.773-5.39 0-1.54 3.215-7.047 9.644-16.521 6.429-9.475 13.884-19.826 22.369-31.054 8.484-11.229 17.275-22.04 26.372-32.434 12.551-14.372 20.62-21.558 24.206-21.558.568 0 1.116.138 1.64.416.525.279.853.417.984.417.132 0 .263-.064.394-.192.568-.684 1.694-1.027 3.378-1.027 1.683 0 3.323.321 4.92.963 1.596.641 2.395 1.369 2.395 2.181 0 .514-2.188 4.599-6.56 12.255-14.652 25.408-24.492 42.86-29.52 52.356 4.81-5.688 11.687-13.238 20.631-22.649 8.943-9.41 18.335-18.8 28.175-28.167 12.814-12.147 20.468-18.222 22.961-18.222 1.005 0 2.273.215 3.804.642 2.711.77 5.314 1.155 7.807 1.155.699.128 1.301.417 1.804.866.502.449.754.909.754 1.379 0 .472-.131.856-.393 1.155zM95.854 22.68c-4.373 1.54-9.534 2.758-15.481 3.657-2.493 3.122-6.025 7.978-10.595 14.565s-7.686 11.036-9.348 13.345c-1.662 2.31-4.341 6.416-8.036 12.319-3.696 5.903-6.899 11.004-9.61 15.303-2.713 4.298-5.599 8.544-8.66 12.736-6.254 8.64-11.83 12.961-16.728 12.961-2.056 0-3.827-.536-5.313-1.605-1.488-1.069-2.231-2.811-2.231-5.229 0-2.415 1.366-5.432 4.1-9.046 2.733-3.615 4.734-5.935 6.003-6.962 1.268-1.026 2.12-1.54 2.558-1.54.437 0 .656.279.656.834l-.328 1.348c0 .256.12.492.361.706.24.214.535.32.885.32s.634-.17.853-.513c6.516-8.47 11.917-15.922 16.204-22.36 4.285-6.438 7.423-11.175 9.413-14.213 1.99-3.035 3.575-5.453 4.756-7.25 3.149-4.704 6.275-8.918 9.381-12.639-11.808 2.909-21.058 4.363-27.749 4.363-6.691 0-11.502-.418-14.432-1.251-2.93-.834-4.854-1.775-5.773-2.824-.918-1.047-1.377-2.117-1.377-3.208 0-1.09.043-2.149.131-3.175.174-2.139 1.497-3.893 3.969-5.262 2.47-1.368 4.515-2.053 6.133-2.053 1.618 0 2.427.235 2.427.706s-.36 1.101-1.082 1.893c-.722.791-1.082 1.336-1.082 1.636 0 1.369 5.051 2.053 15.153 2.053 10.103 0 21.714-1.304 34.834-3.914 7.522-5.988 14.016-8.982 19.484-8.982 3.629 0 6.035 1.005 7.216 3.015.787 1.198 1.18 2.396 1.18 3.593 0 1.198-.711 2.396-2.132 3.593-1.421 1.198-3.335 2.225-5.74 3.08z"/>
</svg>
