<?xml version="1.0" encoding="utf-8"?>
<!-- Generator: Adobe Illustrator 24.1.2, SVG Export Plug-In . SVG Version: 6.00 Build 0)  -->
<svg version="1.1" id="Layer_2" xmlns="http://www.w3.org/2000/svg" xmlns:xlink="http://www.w3.org/1999/xlink" x="0px" y="0px"
	 viewBox="0 0 65 65" style="enable-background:new 0 0 65 65;" xml:space="preserve">
<style type="text/css">
	.st0{fill:#92D3F5;}
	.st1{fill:#FFFFFF;}
	.st2{fill:none;stroke:#000000;stroke-width:3;stroke-linecap:round;stroke-miterlimit:10;}
</style>
<g id="color_1_">
	<path class="st0" d="M38.1,62.2C37,63.4,35.4,64,33.8,64l-0.1,0c-3.4,0-6.2-2.7-6.2-6.2l-0.2-9.2l0.2-8.3l0-33
		c0-3.4,2.9-6.2,6.3-6.2c3.4,0,6.1,2.8,6.2,6.2l0,35.4l0.3,8.3l-0.2,6.9C39.9,59.5,39.3,61.1,38.1,62.2L38.1,62.2z"/>
	<path class="st1" d="M30,40.8c-0.4,0.4-1,0.7-1.6,0.7l-16.3,0c-0.2,0-0.5,0-0.7-0.1c-2.1-0.6-3.8-2.1-4.6-4.2c-0.4-2,0.4-4.1,2-5.4
		c0.6-0.4,2-1.1,2.1-1.8c-0.1-0.5,0.6-0.9,0.2-1.1C9.5,27.7,8.4,26,8.2,24c0-2.1,0.9-4.1,2.6-5.4c1.3-1.2,2.2-2.2,1.7-2.9
		c-1.5-1.3-1.3-3.2-1.2-5.3c0.4-2,1.8-3.6,3.7-4.3C15.2,6,15.5,6,15.8,6l12.1,0c1.3,0,2.3,1,2.3,2.3l0.4,30.9
		C30.7,39.7,30.5,40.3,30,40.8L30,40.8z"/>
</g>
<g id="line_1_">
	<path class="st2" d="M30.1,54.2l0-13.6l0-33.2c0-2.1,1.7-3.9,3.8-3.9l0.2,0c2.1,0,3.9,1.7,3.9,3.8l0,34.9l0.2,13.4"/>
	<line class="st2" x1="20.1" y1="28.5" x2="23.6" y2="28.5"/>
	<line class="st2" x1="21.1" y1="19.8" x2="23.6" y2="19.8"/>
	<path class="st2" d="M23.9,39.2l-10.5,0c0,0-5.6-1.7-1.6-5.7s1.9-6.5,1.9-6.5c-1.8-1.1-2.4-3.5-1.3-5.3c0.3-0.5,0.7-0.9,1.2-1.2
		c1.9-1.4,3.4-4.1,2-6.1c0,0-0.1-0.1-0.1-0.1c0,0-3.2-3.6,1.7-5.9l6.2,0"/>
</g>
</svg>
