<svg xmlns="http://www.w3.org/2000/svg" width="276" height="196">
    <path fill="#008FD3" fill-rule="evenodd" stroke="#0B0C11" stroke-width="6" d="M263.126 117.658c-27.81 20.456-57.703 47.129-72.702 64.865-.465.548-1.259.671-1.885.327l-16.912-9.645c-.635-.363-.916-1.127-.667-1.808l9.799-26.619-19.053 21.574c-.442.502-1.175.652-1.773.353l-18.967-9.153c-.728-.351-1.049-1.215-.722-1.949 1.945-4.371 3.819-9.08 5.687-14.287-14.231 10.518-31.599 11.917-43.727 3.028-9.474-6.945-14-18.988-12.532-32.121-2.981 5.081-5.737 10.154-8.229 15.149-.311.626-1.019.946-1.699.774l-19.43-4.881c-.676-.173-1.139-.766-1.137-1.45V91.429l-14.673 26.79c-.309.559-.941.859-1.571.749l-24.473-4.363c-.11-.02-.215-.051-.316-.093-.544-.227-.918-.758-.923-1.366-.379-36.591-3.248-72.842-8.076-102.068-.081-.487.086-.98.442-1.317.356-.339.862-.479 1.345-.372l39.427 8.575c.719.148 1.236.827 1.178 1.566l-2.891 40.399 16.703-26.126c.306-.482.863-.745 1.434-.675l15.35 1.836c.727.089 1.29.686 1.321 1.413l1.404 28.574 17.316-31.042c.325-.577.992-.871 1.643-.72 7.464 1.735 13.936 3.793 21.432 6.182 4.551 1.448 9.456 3.009 15.152 4.676.502.154.892.547 1.028 1.053.137.506-.003 1.044-.369 1.416-8.241 8.396-16.017 17.025-23.194 25.737 12.657-6.269 26.568-5.96 36.537 1.358 3.024 2.214 5.559 4.955 7.577 8.183 1.333-6.229 2.646-12.664 3.918-19.181.09-.461.391-.85.813-1.052.422-.201.913-.173 1.333.016l31.179 15.96c.707.362 1.01 1.206.694 1.926l-13.429 30.593 17.611-16.523c.422-.395 1.041-.511 1.58-.295l11.279 4.503c.516.214 1.064.986.914 1.702l-3.903 18.153 18.635-19.106c.476-.493 1.232-.586 1.836-.239l28.55 16.93c.435.256.707.707.736 1.205.025.499-.199.976-.6 1.272zM135.472 99.265c-.482-.353-.999-.644-1.55-.873-1.707-.711-3.698-.807-5.774-.262l-7.459 5.266c-3.951 5.356-3.751 12.214.447 15.291 1.983 1.458 4.587 1.859 7.325 1.135 2.86-.753 5.509-2.621 7.457-5.263 3.952-5.357 3.753-12.218-.446-15.294z"/>
</svg>
